<?xml version="1.0" encoding="UTF-8" standalone="no"?>
<!-- Created with Inkscape (http://www.inkscape.org/) -->

<svg
   xmlns:dc="http://purl.org/dc/elements/1.1/"
   xmlns:cc="http://creativecommons.org/ns#"
   xmlns:rdf="http://www.w3.org/1999/02/22-rdf-syntax-ns#"
   xmlns:svg="http://www.w3.org/2000/svg"
   xmlns="http://www.w3.org/2000/svg"
   xmlns:sodipodi="http://sodipodi.sourceforge.net/DTD/sodipodi-0.dtd"
   xmlns:inkscape="http://www.inkscape.org/namespaces/inkscape"
   width="658"
   height="658"
   viewBox="0 0 658.00001 658.00001"
   id="svg4124"
   version="1.1"
   inkscape:version="0.91 r13725"
   sodipodi:docname="brasao_cbmrs.svg">
  <defs
     id="defs4126" />
  <sodipodi:namedview
     id="base"
     pagecolor="#ffffff"
     bordercolor="#666666"
     borderopacity="1.0"
     inkscape:pageopacity="0.0"
     inkscape:pageshadow="2"
     inkscape:zoom="0.35"
     inkscape:cx="410.7412"
     inkscape:cy="508.03077"
     inkscape:document-units="px"
     inkscape:current-layer="layer1"
     showgrid="false"
     inkscape:window-width="1535"
     inkscape:window-height="876"
     inkscape:window-x="65"
     inkscape:window-y="24"
     inkscape:window-maximized="1"
     units="px"
     inkscape:showpageshadow="false" />
  <metadata
     id="metadata4129">
    <rdf:RDF>
      <cc:Work
         rdf:about="">
        <dc:format>image/svg+xml</dc:format>
        <dc:type
           rdf:resource="http://purl.org/dc/dcmitype/StillImage" />
        <dc:title></dc:title>
      </cc:Work>
    </rdf:RDF>
  </metadata>
  <g
     inkscape:label="Camada 1"
     inkscape:groupmode="layer"
     id="layer1"
     transform="translate(0,-394.36216)">
    <g
       transform="matrix(1.7202739,0,0,1.7202739,-100.3563,368.38882)"
       id="g3599">
      <path
         id="path106"
         d="m 250,396.433 c -105.21,0 -190.5,-85.289 -190.5,-190.5 0,-105.21 85.29,-190.5 190.5,-190.5 105.21,0 190.5,85.29 190.5,190.5 0,105.211 -85.29,190.5 -190.5,190.5 z"
         inkscape:connector-curvature="0"
         style="fill:#201f1f" />
      <path
         id="path108"
         d="m 250,18.433 c 103.553,0 187.5,83.947 187.5,187.5 0,103.554 -83.947,187.5 -187.5,187.5 -103.553,0 -187.5,-83.946 -187.5,-187.5 0,-103.553 83.947,-187.5 187.5,-187.5"
         inkscape:connector-curvature="0"
         style="fill:#d80100" />
      <path
         id="path110"
         d="m 250,50.933 c 85.604,0 155,69.396 155,155 0,85.604 -69.396,155 -155,155 -85.604,0 -155,-69.396 -155,-155 0,-85.604 69.396,-155 155,-155 z"
         inkscape:connector-curvature="0"
         style="fill:#201f1f" />
      <path
         id="path112"
         d="m 172.414,356.509 -4.177,-3.835 q 1.484,-1.819 3.208,-2.688 1.724,-0.869 3.633,-0.814 1.908,0.055 4.335,1.225 2.943,1.419 4.396,3.174 1.453,1.756 1.769,4.564 0.316,2.808 -1.305,6.17 -2.161,4.483 -5.705,5.742 -3.544,1.259 -7.903,-0.843 -3.412,-1.644 -4.699,-3.965 -1.287,-2.32 -0.858,-5.634 l 5.455,1.278 q -0.139,0.95 -0.04,1.468 0.159,0.866 0.67,1.538 0.511,0.671 1.349,1.075 1.897,0.914 3.643,-0.126 1.309,-0.765 2.479,-3.191 1.449,-3.005 1.075,-4.559 -0.375,-1.554 -2.025,-2.349 -1.601,-0.772 -2.853,-0.268 -1.253,0.504 -2.447,2.038 z"
         inkscape:connector-curvature="0"
         style="fill:#ffffff" />
      <path
         id="path114"
         d="m 163.563,354.011 q -2.72,4.086 -6.511,4.847 -3.792,0.761 -7.855,-1.944 -4.165,-2.773 -4.93,-6.509 -0.764,-3.737 1.918,-7.766 1.947,-2.924 4.177,-4.141 2.231,-1.217 4.785,-1.02 2.554,0.198 5.331,2.046 2.822,1.879 4.073,4.01 1.251,2.13 1.105,4.841 -0.146,2.711 -2.093,5.636 z m -5.14,-3.455 q 1.681,-2.526 1.477,-4.255 -0.204,-1.729 -1.82,-2.805 -1.661,-1.106 -3.291,-0.631 -1.631,0.475 -3.494,3.275 -1.569,2.356 -1.342,4.075 0.227,1.72 1.854,2.803 1.559,1.038 3.239,0.563 1.679,-0.475 3.377,-3.025 z"
         inkscape:connector-curvature="0"
         style="fill:#ffffff" />
      <path
         id="path116"
         d="m 149.167,331.976 -13.364,14.938 -7.693,-6.883 q -2.139,-1.914 -2.942,-3.293 -0.803,-1.378 -0.607,-2.992 0.196,-1.613 1.472,-3.039 1.112,-1.244 2.449,-1.671 1.336,-0.428 2.765,-0.159 0.91,0.172 2.149,0.859 -0.579,-1.014 -0.71,-1.626 -0.091,-0.412 -0.037,-1.446 0.054,-1.034 0.182,-1.506 l 1.643,-6.327 5.217,4.668 -1.618,6.77 q -0.324,1.306 -0.195,1.899 0.19,0.793 0.822,1.359 l 0.407,0.364 5.424,-6.062 z m -12.585,4.738 -1.946,-1.741 q -0.316,-0.283 -1.405,-0.891 -0.541,-0.318 -1.168,-0.201 -0.628,0.117 -1.066,0.606 -0.647,0.724 -0.535,1.521 0.112,0.798 1.376,1.928 l 2.028,1.814 z"
         inkscape:connector-curvature="0"
         style="fill:#ffffff" />
      <path
         id="path118"
         d="m 117.989,330.377 -6.709,-7.809 q -2.191,-2.551 -2.069,-4.864 0.122,-2.313 2.362,-4.237 2.302,-1.978 4.788,-1.707 2.486,0.271 4.927,3.113 l 2.209,2.572 5.642,-4.847 4.053,4.719 z m 2.428,-10.286 -0.989,-1.151 q -1.167,-1.359 -2.111,-1.503 -0.944,-0.145 -1.68,0.488 -0.716,0.615 -0.804,1.519 -0.088,0.905 1.043,2.222 l 1.15,1.338 z"
         inkscape:connector-curvature="0"
         style="fill:#ffffff" />
      <path
         id="path120"
         d="m 112.133,307.936 q -4.118,2.671 -7.9,1.864 -3.782,-0.806 -6.438,-4.901 -2.722,-4.199 -1.941,-7.932 0.781,-3.733 4.841,-6.366 2.948,-1.912 5.479,-2.143 2.53,-0.232 4.796,0.963 2.266,1.195 4.081,3.994 1.845,2.844 2.148,5.296 0.302,2.452 -0.908,4.883 -1.21,2.43 -4.158,4.342 z m -3.347,-5.211 q 2.547,-1.652 3.046,-3.32 0.498,-1.668 -0.558,-3.296 -1.086,-1.675 -2.771,-1.886 -1.685,-0.211 -4.507,1.619 -2.374,1.54 -2.848,3.208 -0.475,1.668 0.589,3.309 1.019,1.571 2.749,1.802 1.731,0.23 4.3,-1.436 z"
         inkscape:connector-curvature="0"
         style="fill:#ffffff" />
      <path
         id="path122"
         d="m 84.866,281.023 -3.396,-8.551 q -1.004,-2.529 -0.936,-4.358 0.067,-1.829 0.947,-3.355 0.88,-1.526 2.401,-2.66 1.521,-1.134 3.427,-1.891 2.986,-1.186 4.901,-1.159 1.915,0.026 3.507,0.791 1.591,0.766 2.51,2.005 1.26,1.691 1.87,3.228 l 3.397,8.552 z m 1.933,-7.431 10.178,-4.043 -0.561,-1.41 q -0.716,-1.804 -1.419,-2.408 -0.703,-0.603 -1.872,-0.639 -1.17,-0.036 -3.406,0.852 -2.96,1.176 -3.67,2.576 -0.709,1.4 0.179,3.636 z"
         inkscape:connector-curvature="0"
         style="fill:#ffffff" />
      <path
         id="path124"
         d="m 76.349,258.233 -4.048,-16.096 4.15,-1.044 2.534,10.077 3.089,-0.777 -2.351,-9.348 3.965,-0.997 2.351,9.348 3.832,-0.964 -2.608,-10.368 4.402,-1.107 4.122,16.388 z"
         inkscape:connector-curvature="0"
         style="fill:#ffffff" />
      <path
         id="path126"
         d="M 69.727,225.627 69.01,214.055 q -0.179,-2.893 1.158,-4.53 1.337,-1.638 3.452,-1.769 1.774,-0.11 3.111,0.917 0.892,0.684 1.471,2.073 0.385,-2.188 1.585,-3.283 1.199,-1.094 3.109,-1.213 1.556,-0.096 2.842,0.55 1.287,0.647 2.088,1.857 0.498,0.75 0.8,2.307 0.402,2.071 0.445,2.753 l 0.66,10.671 z m 7.46,-6.722 -0.166,-2.689 q -0.09,-1.446 -0.623,-1.981 -0.533,-0.536 -1.475,-0.478 -0.873,0.054 -1.329,0.651 -0.457,0.597 -0.37,2.002 l 0.169,2.73 z m 7.86,-0.487 -0.195,-3.152 q -0.099,-1.597 -0.706,-2.217 -0.607,-0.62 -1.562,-0.56 -0.887,0.054 -1.386,0.736 -0.499,0.682 -0.398,2.305 l 0.194,3.139 z"
         inkscape:connector-curvature="0"
         style="fill:#ffffff" />
      <path
         id="path128"
         d="m 78.74,202.593 q -4.892,-0.402 -7.393,-3.351 -2.501,-2.949 -2.102,-7.813 0.41,-4.987 3.309,-7.465 2.899,-2.479 7.722,-2.082 3.502,0.287 5.647,1.65 2.145,1.363 3.208,3.693 1.064,2.33 0.791,5.655 -0.277,3.379 -1.536,5.505 -1.258,2.126 -3.701,3.311 -2.443,1.185 -5.945,0.897 z m 0.534,-6.17 q 3.025,0.248 4.439,-0.768 1.414,-1.015 1.573,-2.95 0.164,-1.989 -1.041,-3.186 -1.205,-1.196 -4.557,-1.472 -2.821,-0.231 -4.216,0.8 -1.394,1.031 -1.554,2.979 -0.154,1.867 1.075,3.106 1.229,1.24 4.281,1.491 z"
         inkscape:connector-curvature="0"
         style="fill:#ffffff" />
      <path
         id="path130"
         d="m 71.254,174.815 1.877,-7.929 12.592,-0.25 -11.146,-5.857 1.871,-7.902 19.504,4.617 -1.166,4.923 -14.874,-3.522 13.97,7.34 -1.055,4.457 -15.775,0.284 14.875,3.521 -1.169,4.936 z"
         inkscape:connector-curvature="0"
         style="fill:#ffffff" />
      <path
         id="path132"
         d="m 78.799,146.237 4.346,-10.748 q 1.086,-2.687 2.999,-3.588 1.912,-0.901 3.877,-0.106 1.648,0.666 2.412,2.169 0.509,1.002 0.432,2.505 1.291,-1.808 2.846,-2.278 1.554,-0.47 3.328,0.247 1.445,0.584 2.327,1.722 0.882,1.138 1.082,2.576 0.126,0.892 -0.273,2.426 -0.53,2.042 -0.787,2.676 l -4.007,9.912 z m 9.63,-2.846 1.01,-2.497 q 0.543,-1.343 0.293,-2.056 -0.25,-0.713 -1.124,-1.067 -0.812,-0.328 -1.481,0.014 -0.669,0.341 -1.196,1.647 l -1.025,2.535 z m 7.301,2.952 1.184,-2.928 q 0.6,-1.483 0.32,-2.304 -0.28,-0.821 -1.168,-1.18 -0.824,-0.333 -1.568,0.067 -0.744,0.399 -1.354,1.908 l -1.178,2.915 z"
         inkscape:connector-curvature="0"
         style="fill:#ffffff" />
      <path
         id="path134"
         d="m 88.406,123.811 8.187,-14.438 3.722,2.111 -5.125,9.039 2.771,1.571 4.754,-8.384 3.556,2.016 -4.754,8.384 3.437,1.949 5.274,-9.3 3.948,2.239 -8.335,14.7 z"
         inkscape:connector-curvature="0"
         style="fill:#ffffff" />
      <path
         id="path136"
         d="m 99.883,104.608 3.558,-5.086 16.423,11.49 -3.558,5.086 z"
         inkscape:connector-curvature="0"
         style="fill:#ffffff" />
      <path
         id="path138"
         d="m 122.429,107.262 -15.146,-13.128 6.761,-7.799 q 1.881,-2.17 3.247,-2.994 1.366,-0.825 2.982,-0.654 1.616,0.171 3.063,1.424 1.26,1.093 1.709,2.422 0.448,1.33 0.202,2.763 -0.158,0.912 -0.825,2.162 1.004,-0.595 1.614,-0.736 0.41,-0.097 1.445,-0.059 1.035,0.037 1.509,0.159 l 6.352,1.543 -4.585,5.29 -6.796,-1.512 q -1.31,-0.304 -1.901,-0.165 -0.79,0.202 -1.346,0.842 l -0.358,0.414 6.147,5.328 z m -4.934,-12.509 1.71,-1.973 q 0.278,-0.32 0.868,-1.419 0.31,-0.545 0.183,-1.171 -0.127,-0.626 -0.623,-1.056 -0.733,-0.636 -1.529,-0.511 -0.796,0.125 -1.906,1.406 l -1.782,2.056 z"
         inkscape:connector-curvature="0"
         style="fill:#ffffff" />
      <path
         id="path140"
         d="m 129.301,84.317 q -3.234,-3.692 -2.978,-7.551 0.255,-3.858 3.927,-7.074 3.764,-3.297 7.571,-3.059 3.806,0.237 6.995,3.878 2.315,2.643 2.907,5.115 0.592,2.471 -0.265,4.884 -0.858,2.414 -3.367,4.612 -2.551,2.234 -4.934,2.885 -2.383,0.651 -4.962,-0.198 -2.579,-0.849 -4.894,-3.492 z m 4.677,-4.06 q 2,2.284 3.722,2.538 1.722,0.255 3.183,-1.024 1.501,-1.316 1.468,-3.013 -0.033,-1.698 -2.248,-4.228 -1.865,-2.129 -3.584,-2.359 -1.719,-0.23 -3.19,1.058 -1.409,1.234 -1.389,2.979 0.02,1.745 2.038,4.049 z"
         inkscape:connector-curvature="0"
         style="fill:#ffffff" />
      <path
         id="path142"
         d="m 149.744,71.356 4.706,-3.565 q 0.953,1.09 1.859,1.392 1.47,0.485 2.951,-0.498 1.105,-0.733 1.359,-1.648 0.254,-0.915 -0.199,-1.599 -0.431,-0.649 -1.341,-0.784 -0.909,-0.135 -3.285,0.785 -3.902,1.489 -6.187,1.185 -2.298,-0.298 -3.598,-2.257 -0.854,-1.287 -0.867,-2.927 -0.014,-1.64 1.05,-3.289 1.063,-1.649 3.672,-3.38 3.202,-2.124 5.672,-2.049 2.47,0.076 4.512,2.462 l -4.675,3.512 q -0.942,-0.999 -1.903,-1.1 -0.961,-0.101 -2.055,0.625 -0.9,0.597 -1.102,1.281 -0.203,0.684 0.16,1.231 0.264,0.399 0.852,0.468 0.584,0.089 2.14,-0.533 3.867,-1.516 5.826,-1.741 1.959,-0.225 3.359,0.438 1.4,0.663 2.307,2.03 1.065,1.606 1.076,3.551 0.011,1.946 -1.119,3.704 -1.13,1.759 -3.557,3.369 -4.261,2.827 -6.99,2.275 -2.729,-0.552 -4.623,-2.938 z"
         inkscape:connector-curvature="0"
         style="fill:#ffffff" />
      <path
         id="path144"
         d="m 171.999,42.248 7.562,-3.036 7.462,10.146 -1.639,-12.484 7.537,-3.026 7.467,18.6 -4.694,1.885 -5.695,-14.185 2.054,15.647 -4.251,1.706 -9.323,-12.728 5.695,14.185 -4.707,1.89 z"
         inkscape:connector-curvature="0"
         style="fill:#ffffff" />
      <path
         id="path146"
         d="m 199.225,32.265 5.985,-1.646 5.315,19.325 -5.984,1.646 z"
         inkscape:connector-curvature="0"
         style="fill:#ffffff" />
      <path
         id="path148"
         d="m 211.501,28.961 6.109,-1.024 2.497,14.899 9.533,-1.598 0.816,4.868 -15.641,2.622 z"
         inkscape:connector-curvature="0"
         style="fill:#ffffff" />
      <path
         id="path150"
         d="m 231.737,25.988 6.182,-0.555 1.79,19.963 -6.182,0.555 z"
         inkscape:connector-curvature="0"
         style="fill:#ffffff" />
      <path
         id="path152"
         d="m 243.1,24.929 18.823,0.339 -0.089,4.948 -6.315,-0.113 -0.272,15.091 -6.192,-0.112 0.272,-15.091 -6.316,-0.114 z"
         inkscape:connector-curvature="0"
         style="fill:#ffffff" />
      <path
         id="path154"
         d="m 275.144,43.662 -6.992,-0.935 -1.401,3.151 -6.274,-0.839 10.122,-18.868 6.695,0.895 4.811,20.865 -6.424,-0.859 z m -0.713,-4.468 -1.241,-7.435 -3.136,6.85 z"
         inkscape:connector-curvature="0"
         style="fill:#ffffff" />
      <path
         id="path156"
         d="m 284.094,48.632 5.237,-19.347 9.964,2.697 q 2.771,0.751 4.108,1.622 1.336,0.872 1.885,2.402 0.549,1.529 0.049,3.377 -0.436,1.61 -1.438,2.592 -1.003,0.982 -2.4,1.383 -0.89,0.255 -2.306,0.197 0.973,0.646 1.365,1.134 0.265,0.327 0.681,1.276 0.417,0.948 0.513,1.427 l 1.372,6.391 -6.757,-1.829 -1.593,-6.776 q -0.296,-1.313 -0.678,-1.785 -0.525,-0.623 -1.344,-0.845 l -0.528,-0.143 -2.125,7.852 z m 9.12,-9.882 2.521,0.682 q 0.409,0.111 1.655,0.165 0.626,0.042 1.134,-0.345 0.508,-0.386 0.68,-1.02 0.253,-0.937 -0.205,-1.599 -0.458,-0.662 -2.094,-1.105 l -2.626,-0.711 z"
         inkscape:connector-curvature="0"
         style="fill:#ffffff" />
      <path
         id="path158"
         d="m 322.698,40.073 8.235,4.104 q 2.435,1.214 3.605,2.621 1.17,1.408 1.533,3.132 0.363,1.724 -0.014,3.583 -0.377,1.859 -1.291,3.695 -1.433,2.875 -2.878,4.134 -1.444,1.258 -3.14,1.749 -1.696,0.492 -3.207,0.182 -2.067,-0.419 -3.547,-1.157 l -8.236,-4.104 z m 3.518,6.825 -4.884,9.802 1.358,0.677 q 1.738,0.865 2.664,0.846 0.927,-0.02 1.821,-0.773 0.895,-0.753 1.968,-2.907 1.421,-2.851 1.015,-4.367 -0.405,-1.516 -2.559,-2.589 z"
         inkscape:connector-curvature="0"
         style="fill:#ffffff" />
      <path
         id="path160"
         d="m 338.109,59.201 q 2.773,-4.049 6.574,-4.76 3.801,-0.71 7.828,2.048 4.129,2.827 4.844,6.574 0.715,3.746 -2.02,7.739 -1.985,2.899 -4.232,4.086 -2.247,1.187 -4.798,0.956 -2.551,-0.231 -5.303,-2.116 -2.798,-1.916 -4.02,-4.063 -1.223,-2.146 -1.041,-4.856 0.182,-2.709 2.168,-5.608 z m 5.094,3.523 q -1.715,2.504 -1.534,4.235 0.181,1.732 1.783,2.829 1.647,1.128 3.283,0.674 1.636,-0.453 3.537,-3.228 1.599,-2.335 1.395,-4.057 -0.204,-1.722 -1.817,-2.827 -1.545,-1.059 -3.231,-0.606 -1.686,0.453 -3.416,2.98 z"
         inkscape:connector-curvature="0"
         style="fill:#ffffff" />
      <path
         id="path162"
         d="m 359.265,87.568 14.375,-13.967 7.193,7.403 q 2.001,2.059 2.705,3.491 0.705,1.431 0.397,3.027 -0.309,1.596 -1.681,2.929 -1.197,1.163 -2.56,1.496 -1.363,0.333 -2.769,-0.035 -0.896,-0.235 -2.084,-1.007 0.507,1.052 0.595,1.672 0.061,0.417 -0.065,1.444 -0.126,1.028 -0.287,1.49 l -2.081,6.197 -4.878,-5.021 2.088,-6.641 q 0.414,-1.28 0.326,-1.881 -0.133,-0.804 -0.724,-1.412 l -0.381,-0.392 -5.834,5.668 z m 12.885,-3.846 1.82,1.873 q 0.295,0.304 1.339,0.986 0.517,0.355 1.152,0.282 0.634,-0.073 1.105,-0.53 0.696,-0.677 0.64,-1.48 -0.056,-0.803 -1.238,-2.019 l -1.895,-1.951 z"
         inkscape:connector-curvature="0"
         style="fill:#ffffff" />
      <path
         id="path164"
         d="m 389.918,91.226 3.847,4.871 -15.73,12.422 -3.847,-4.871 z"
         inkscape:connector-curvature="0"
         style="fill:#ffffff" />
      <path
         id="path166"
         d="m 388.919,105.971 q 4.152,-2.618 7.924,-1.763 3.771,0.855 6.374,4.983 2.669,4.233 1.84,7.956 -0.828,3.722 -4.922,6.304 -2.972,1.874 -5.506,2.073 -2.533,0.199 -4.783,-1.024 -2.251,-1.224 -4.03,-4.046 -1.808,-2.868 -2.08,-5.323 -0.271,-2.456 0.97,-4.871 1.241,-2.415 4.213,-4.289 z m 3.281,5.254 q -2.568,1.619 -3.088,3.28 -0.52,1.661 0.515,3.304 1.065,1.688 2.747,1.921 1.682,0.232 4.527,-1.562 2.394,-1.509 2.889,-3.171 0.496,-1.662 -0.547,-3.316 -0.999,-1.585 -2.726,-1.837 -1.727,-0.253 -4.317,1.381 z"
         inkscape:connector-curvature="0"
         style="fill:#ffffff" />
      <path
         id="path168"
         d="m 407.456,147.169 3.902,-1.472 3.378,8.954 -7.995,3.017 q -2.722,-1.91 -4.101,-3.647 -1.379,-1.738 -2.402,-4.45 -1.26,-3.338 -0.915,-5.872 0.344,-2.534 2.159,-4.541 1.814,-2.007 4.731,-3.107 3.07,-1.159 5.818,-0.749 2.749,0.41 4.847,2.409 1.628,1.563 2.844,4.787 1.173,3.108 1.191,4.862 0.019,1.753 -0.78,3.217 -0.8,1.463 -2.423,2.66 l -3.107,-5.213 q 0.931,-0.746 1.183,-1.784 0.251,-1.037 -0.231,-2.316 -0.72,-1.906 -2.471,-2.539 -1.751,-0.632 -4.616,0.449 -3.044,1.148 -3.917,2.786 -0.873,1.637 -0.101,3.683 0.367,0.973 0.981,1.749 0.615,0.776 1.722,1.659 l 1.766,-0.666 z"
         inkscape:connector-curvature="0"
         style="fill:#ffffff" />
      <path
         id="path170"
         d="m 405.041,162.336 19.567,-4.341 2.236,10.077 q 0.622,2.803 0.47,4.391 -0.152,1.589 -1.252,2.785 -1.1,1.196 -2.969,1.611 -1.628,0.361 -2.963,-0.071 -1.336,-0.432 -2.339,-1.484 -0.639,-0.67 -1.245,-1.95 -0.121,1.161 -0.371,1.734 -0.167,0.387 -0.814,1.196 -0.646,0.809 -1.026,1.117 l -5.024,4.182 -1.516,-6.834 5.263,-4.557 q 1.025,-0.871 1.265,-1.429 0.309,-0.755 0.125,-1.582 l -0.118,-0.534 -7.942,1.762 z m 12.986,3.491 0.566,2.549 q 0.091,0.414 0.622,1.543 0.253,0.574 0.832,0.844 0.578,0.271 1.218,0.129 0.948,-0.21 1.322,-0.923 0.374,-0.713 0.007,-2.368 l -0.589,-2.657 z"
         inkscape:connector-curvature="0"
         style="fill:#ffffff" />
      <path
         id="path172"
         d="m 413.803,195.611 -0.567,-7.032 -3.376,-0.701 -0.509,-6.31 20.584,5.897 0.543,6.732 -19.372,9.121 -0.522,-6.46 z m 4.216,-1.643 7.003,-2.787 -7.359,-1.615 z"
         inkscape:connector-curvature="0"
         style="fill:#ffffff" />
      <path
         id="path174"
         d="m 431.011,206.301 -0.274,5.777 -11.433,7.014 11.076,0.524 -0.276,5.832 -20.021,-0.949 0.276,-5.831 11.349,-6.977 -10.993,-0.521 0.275,-5.817 z"
         inkscape:connector-curvature="0"
         style="fill:#ffffff" />
      <path
         id="path176"
         d="m 429.07,232.676 -1.838,9.016 q -0.543,2.666 -1.601,4.16 -1.058,1.493 -2.629,2.289 -1.572,0.796 -3.465,0.913 -1.894,0.116 -3.903,-0.294 -3.148,-0.641 -4.737,-1.711 -1.589,-1.071 -2.502,-2.582 -0.912,-1.512 -1.003,-3.051 -0.129,-2.105 0.201,-3.726 l 1.837,-9.016 z m -5.685,5.162 -10.73,-2.187 -0.303,1.487 q -0.388,1.903 -0.13,2.793 0.258,0.889 1.217,1.559 0.959,0.67 3.317,1.15 3.121,0.637 4.481,-0.147 1.359,-0.783 1.84,-3.141 z"
         inkscape:connector-curvature="0"
         style="fill:#ffffff" />
      <path
         id="path178"
         d="m 423.948,256.216 -5.24,15.748 -4.061,-1.351 3.281,-9.859 -3.023,-1.006 -3.043,9.146 -3.879,-1.291 3.044,-9.146 -3.749,-1.247 -3.376,10.144 -4.307,-1.433 5.336,-16.034 z"
         inkscape:connector-curvature="0"
         style="fill:#ffffff" />
      <path
         id="path180"
         d="m 411.837,287.443 -4.52,8.015 q -1.336,2.37 -2.802,3.466 -1.466,1.096 -3.206,1.371 -1.74,0.274 -3.577,-0.197 -1.838,-0.471 -3.624,-1.479 -2.799,-1.578 -3.982,-3.085 -1.182,-1.506 -1.587,-3.225 -0.404,-1.719 -0.017,-3.212 0.524,-2.043 1.337,-3.484 l 4.519,-8.015 z m -6.996,3.165 -9.539,-5.379 -0.745,1.322 q -0.954,1.691 -0.982,2.617 -0.028,0.926 0.679,1.858 0.706,0.932 2.802,2.114 2.775,1.565 4.31,1.238 1.534,-0.328 2.716,-2.424 z"
         inkscape:connector-curvature="0"
         style="fill:#ffffff" />
      <path
         id="path182"
         d="m 391.935,301.871 q 3.897,2.984 4.406,6.817 0.509,3.834 -2.458,7.709 -3.042,3.973 -6.821,4.489 -3.779,0.517 -7.621,-2.425 -2.79,-2.136 -3.857,-4.443 -1.067,-2.306 -0.701,-4.841 0.365,-2.536 2.393,-5.184 2.061,-2.693 4.269,-3.8 2.209,-1.107 4.904,-0.783 2.696,0.325 5.486,2.461 z m -3.787,4.901 q -2.41,-1.845 -4.148,-1.756 -1.739,0.09 -2.919,1.631 -1.214,1.585 -0.847,3.243 0.366,1.658 3.037,3.703 2.247,1.72 3.977,1.608 1.731,-0.113 2.92,-1.666 1.138,-1.487 0.775,-3.194 -0.363,-1.707 -2.795,-3.569 z"
         inkscape:connector-curvature="0"
         style="fill:#ffffff" />
      <path
         id="path184"
         d="m 367.714,325.657 -4.171,4.179 q -1.094,-0.949 -2.032,-1.123 -1.523,-0.278 -2.855,0.899 -0.994,0.878 -1.119,1.82 -0.126,0.941 0.417,1.556 0.516,0.584 1.436,0.592 0.919,0.008 3.146,-1.23 3.659,-2.011 5.965,-2.024 2.317,-0.022 3.874,1.74 1.023,1.158 1.262,2.781 0.239,1.622 -0.588,3.402 -0.826,1.779 -3.172,3.853 -2.879,2.544 -5.336,2.809 -2.458,0.265 -4.809,-1.818 l 4.148,-4.122 q 1.071,0.861 2.037,0.828 0.965,-0.032 1.949,-0.901 0.809,-0.716 0.916,-1.421 0.106,-0.705 -0.328,-1.197 -0.317,-0.359 -0.909,-0.347 -0.59,-0.007 -2.046,0.823 -3.622,2.033 -5.531,2.526 -1.91,0.492 -3.387,0.028 -1.478,-0.464 -2.564,-1.693 -1.277,-1.445 -1.555,-3.37 -0.278,-1.925 0.599,-3.823 0.877,-1.897 3.059,-3.826 3.832,-3.386 6.611,-3.214 2.779,0.171 4.983,2.273 z"
         inkscape:connector-curvature="0"
         style="fill:#ffffff" />
      <path
         id="path186"
         d="m 347.462,358.562 -5.144,3.425 -6.622,-9.947 q -0.985,-1.479 -1.399,-3.101 -0.415,-1.621 -0.086,-3.261 0.329,-1.64 1.145,-2.758 1.131,-1.557 3.237,-2.959 1.218,-0.811 2.771,-1.599 1.553,-0.787 2.858,-0.925 1.304,-0.137 2.728,0.262 1.423,0.399 2.378,1.192 1.539,1.275 2.357,2.504 l 6.622,9.947 -5.144,3.424 -6.781,-10.185 q -0.909,-1.366 -2.177,-1.63 -1.268,-0.265 -2.611,0.629 -1.332,0.887 -1.585,2.147 -0.253,1.261 0.672,2.649 z"
         inkscape:connector-curvature="0"
         style="fill:#ffffff" />
      <path
         id="path188"
         d="m 336.403,365.221 -5.559,2.73 -6.66,-13.56 -8.676,4.261 -2.176,-4.43 14.235,-6.991 z"
         inkscape:connector-curvature="0"
         style="fill:#ffffff" />
      <path
         id="path190"
         d="m 192.438,367.516 7.704,2.483 -1.321,4.099 -7.704,-2.483 z"
         inkscape:connector-curvature="0"
         style="fill:#ffffff" />
      <path
         id="path192"
         d="m 227.677,364.978 -3.409,20.097 -5.554,-0.942 2.234,-13.169 q -1.521,0.795 -2.889,1.215 -1.368,0.42 -3.367,0.677 l 0.764,-4.502 q 2.957,-0.427 4.722,-1.432 1.765,-1.004 2.957,-2.715 z"
         inkscape:connector-curvature="0"
         style="fill:#ffffff" />
      <path
         id="path194"
         d="m 236.173,375.556 q -1.275,-0.765 -1.83,-1.656 -0.758,-1.218 -0.678,-2.747 0.131,-2.512 2.577,-3.986 1.908,-1.132 4.939,-0.973 4.014,0.21 5.852,1.839 1.838,1.63 1.717,3.951 -0.071,1.352 -0.897,2.486 -0.619,0.844 -1.891,1.598 1.584,0.864 2.315,2.189 0.732,1.325 0.65,2.882 -0.078,1.501 -0.836,2.769 -0.758,1.268 -1.798,1.925 -1.041,0.658 -2.553,0.914 -1.513,0.256 -3.206,0.168 -3.181,-0.167 -4.821,-1.006 -1.64,-0.838 -2.438,-2.345 -0.797,-1.507 -0.703,-3.309 0.093,-1.761 0.976,-2.94 0.883,-1.179 2.625,-1.759 z m 2.704,-3.801 q -0.054,1.037 0.561,1.706 0.615,0.669 1.694,0.725 0.956,0.051 1.603,-0.545 0.647,-0.596 0.699,-1.593 0.055,-1.038 -0.553,-1.72 -0.608,-0.682 -1.605,-0.734 -1.01,-0.053 -1.678,0.549 -0.668,0.601 -0.721,1.612 z m -0.751,8.599 q -0.07,1.325 0.692,2.206 0.761,0.882 1.799,0.937 0.997,0.052 1.833,-0.76 0.837,-0.812 0.905,-2.123 0.07,-1.324 -0.685,-2.212 -0.754,-0.889 -1.805,-0.944 -1.038,-0.054 -1.852,0.725 -0.815,0.779 -0.887,2.171 z"
         inkscape:connector-curvature="0"
         style="fill:#ffffff" />
      <path
         id="path196"
         d="m 252.897,382.464 5.484,-1.038 q 0.29,1.146 0.838,1.591 0.548,0.446 1.299,0.399 1.337,-0.083 2.004,-1.48 0.484,-1.03 0.557,-4.267 -0.933,1.085 -1.954,1.628 -1.021,0.542 -2.399,0.628 -2.688,0.167 -4.656,-1.629 -1.967,-1.796 -2.148,-4.716 -0.124,-1.992 0.716,-3.688 0.84,-1.696 2.439,-2.638 1.599,-0.941 4.096,-1.096 3.002,-0.186 4.881,0.731 1.879,0.918 3.103,3.095 1.224,2.178 1.452,5.862 0.336,5.417 -1.786,8.076 -2.123,2.659 -6.162,2.91 -2.388,0.148 -3.8,-0.319 -1.413,-0.467 -2.393,-1.475 -0.98,-1.008 -1.571,-2.574 z m 9.681,-9.559 q -0.101,-1.624 -0.977,-2.494 -0.876,-0.87 -2.049,-0.797 -1.105,0.068 -1.784,0.946 -0.678,0.878 -0.575,2.542 0.104,1.679 0.917,2.519 0.812,0.84 1.944,0.769 1.174,-0.072 1.898,-0.98 0.725,-0.908 0.626,-2.505 z"
         inkscape:connector-curvature="0"
         style="fill:#ffffff" />
      <path
         id="path198"
         d="m 272.263,365.35 13.015,-2.322 0.78,4.374 -8.816,1.573 0.058,3.045 q 0.838,-0.594 1.695,-0.969 0.856,-0.375 1.731,-0.531 2.961,-0.528 5.124,0.933 2.164,1.461 2.649,4.18 0.341,1.911 -0.293,3.844 -0.635,1.932 -2.212,3.172 -1.577,1.239 -4.296,1.725 -1.952,0.348 -3.411,0.226 -1.459,-0.121 -2.565,-0.681 -1.107,-0.559 -1.878,-1.38 -0.772,-0.82 -1.423,-2.135 l 5.437,-1.595 q 0.44,1.297 1.304,1.858 0.864,0.561 1.887,0.378 1.144,-0.204 1.736,-1.205 0.592,-1.002 0.284,-2.725 -0.314,-1.763 -1.214,-2.449 -0.901,-0.687 -2.152,-0.463 -0.794,0.141 -1.465,0.664 -0.501,0.381 -1.029,1.239 l -4.79,0.16 z"
         inkscape:connector-curvature="0"
         style="fill:#ffffff" />
      <path
         id="path200"
         d="m 301.192,369.543 7.664,-2.602 1.385,4.077 -7.664,2.603 z"
         inkscape:connector-curvature="0"
         style="fill:#ffffff" />
      <path
         id="path202"
         d="m 250,54.208 c 83.795,0 151.725,67.93 151.725,151.725 0,83.796 -67.93,151.726 -151.725,151.726 -83.795,0 -151.725,-67.93 -151.725,-151.726 0,-83.795 67.93,-151.725 151.725,-151.725 z"
         inkscape:connector-curvature="0"
         style="fill:#fefefe" />
      <g
         id="g204">
        <path
           id="path206"
           d="m 169.54,140.896 17.293,-17.005 8.327,8.468 -17.294,17.005 z"
           inkscape:connector-curvature="0"
           style="fill:#d80100" />
        <path
           id="path208"
           d="m 169.54,140.896 17.293,-17.005 8.327,8.468 -17.294,17.005 z"
           inkscape:connector-curvature="0"
           style="fill-opacity:0;stroke:#000000;stroke-width:3.8210001" />
      </g>
      <g
         id="g210">
        <path
           id="path212"
           d="m 322.959,148.432 -18.093,-16.152 7.91,-8.859 18.092,16.152 z"
           inkscape:connector-curvature="0"
           style="fill:#d80100" />
        <path
           id="path214"
           d="m 322.959,148.432 -18.093,-16.152 7.91,-8.859 18.092,16.152 z"
           inkscape:connector-curvature="0"
           style="fill-opacity:0;stroke:#000000;stroke-width:3.8210001" />
      </g>
      <g
         id="g216">
        <path
           id="path218"
           d="m 186.711,287.224 -18.093,-16.152 7.91,-8.859 18.092,16.152 z"
           inkscape:connector-curvature="0"
           style="fill:#d80100" />
        <path
           id="path220"
           d="m 186.711,287.224 -18.093,-16.152 7.91,-8.859 18.092,16.152 z"
           inkscape:connector-curvature="0"
           style="fill-opacity:0;stroke:#000000;stroke-width:3.8210001" />
      </g>
      <g
         id="g222">
        <path
           id="path224"
           d="m 305.971,277.457 17.294,-17.005 8.326,8.468 -17.293,17.005 z"
           inkscape:connector-curvature="0"
           style="fill:#d80100" />
        <path
           id="path226"
           d="m 305.971,277.457 17.294,-17.005 8.326,8.468 -17.293,17.005 z"
           inkscape:connector-curvature="0"
           style="fill-opacity:0;stroke:#000000;stroke-width:3.8210001" />
      </g>
      <g
         id="g228">
        <path
           id="path230"
           d="m 307.185,136.096 c 4.482,3.617 8.608,7.654 12.314,12.051 L 359.4,113.095 c -2.344,9.907 0,29.346 14.52,48.335 14.595,19.064 15.956,33.024 15.956,43.832 0,10.808 -1.361,24.918 -15.956,43.832 -14.52,18.989 -16.864,38.503 -14.52,48.411 l -39.901,-35.053 c -3.732,4.428 -7.889,8.49 -12.408,12.126 l 0.88,0 35.543,39.779 c -34.122,-7.893 -58.105,30.248 -92.941,30.248 -10.89,0 -25.032,-1.351 -44.164,-15.762 -19.133,-14.486 -38.719,-16.812 -48.777,-14.486 l 35.543,-39.779 0.88,0 c -4.506,-3.626 -8.653,-7.675 -12.376,-12.088 l -39.858,35.015 c 2.268,-9.908 0,-29.422 -14.596,-48.411 -14.519,-18.914 -15.956,-33.024 -15.956,-43.832 0,-10.808 1.437,-24.768 15.956,-43.832 14.596,-18.989 16.864,-38.428 14.596,-48.335 l 39.858,35.014 c 3.697,-4.382 7.813,-8.406 12.282,-12.013 l -0.786,0 -35.543,-39.779 c 10.058,2.252 29.644,0 48.777,-14.485 19.132,-14.486 33.274,-15.837 44.164,-15.837 10.89,0 25.031,1.351 44.164,15.837 19.132,14.485 38.718,16.737 48.776,14.485 l -35.542,39.779 z"
           inkscape:connector-curvature="0"
           style="fill:#d80100" />
        <path
           id="path232"
           d="m 307.185,136.096 c 4.482,3.617 8.608,7.654 12.314,12.051 L 359.4,113.095 c -2.344,9.907 0,29.346 14.52,48.335 14.595,19.064 15.956,33.024 15.956,43.832 0,10.808 -1.361,24.918 -15.956,43.832 -14.52,18.989 -16.864,38.503 -14.52,48.411 l -39.901,-35.053 c -3.732,4.428 -7.889,8.49 -12.408,12.126 l 0.88,0 35.543,39.779 c -34.122,-7.893 -58.105,30.248 -92.941,30.248 -10.89,0 -25.032,-1.351 -44.164,-15.762 -19.133,-14.486 -38.719,-16.812 -48.777,-14.486 l 35.543,-39.779 0.88,0 c -4.506,-3.626 -8.653,-7.675 -12.376,-12.088 l -39.858,35.015 c 2.268,-9.908 0,-29.422 -14.596,-48.411 -14.519,-18.914 -15.956,-33.024 -15.956,-43.832 0,-10.808 1.437,-24.768 15.956,-43.832 14.596,-18.989 16.864,-38.428 14.596,-48.335 l 39.858,35.014 c 3.697,-4.382 7.813,-8.406 12.282,-12.013 l -0.786,0 -35.543,-39.779 c 10.058,2.252 29.644,0 48.777,-14.485 19.132,-14.486 33.274,-15.837 44.164,-15.837 10.89,0 25.031,1.351 44.164,15.837 19.132,14.485 38.718,16.737 48.776,14.485 l -35.542,39.779 z"
           inkscape:connector-curvature="0"
           style="fill-opacity:0;stroke:#201f1f;stroke-width:3.82200003" />
      </g>
      <g
         id="g234">
        <path
           id="path236"
           d="m 250.573,295.787 c 47.829,0 87.04,-36.635 90.847,-83.179 0.215,-2.423 0.287,-4.846 0.287,-7.341 0,-49.893 -40.863,-90.449 -91.134,-90.449 -50.343,0 -91.134,40.556 -91.134,90.449 0,49.964 40.791,90.52 91.134,90.52 z"
           inkscape:connector-curvature="0"
           style="fill:#d80100" />
        <path
           id="path238"
           d="m 250.573,295.787 c 47.829,0 87.04,-36.635 90.847,-83.179 0.215,-2.423 0.287,-4.846 0.287,-7.341 0,-49.893 -40.863,-90.449 -91.134,-90.449 -50.343,0 -91.134,40.556 -91.134,90.449 0,49.964 40.791,90.52 91.134,90.52 z"
           inkscape:connector-curvature="0"
           style="fill-opacity:0;stroke:#fff115;stroke-width:4.50099993;stroke-linecap:round;stroke-linejoin:round" />
      </g>
      <g
         id="g240">
        <path
           id="path242"
           d="m 250.572,287.186 c 43.281,0 78.764,-33.152 82.208,-75.269 0.195,-2.193 0.26,-4.386 0.26,-6.643 0,-45.149 -36.977,-81.848 -82.468,-81.848 -45.555,0 -82.468,36.699 -82.468,81.848 0,45.213 36.913,81.912 82.468,81.912 z"
           inkscape:connector-curvature="0"
           style="fill:#fefefe" />
        <path
           id="path244"
           d="m 250.572,287.186 c 43.281,0 78.764,-33.152 82.208,-75.269 0.195,-2.193 0.26,-4.386 0.26,-6.643 0,-45.149 -36.977,-81.848 -82.468,-81.848 -45.555,0 -82.468,36.699 -82.468,81.848 0,45.213 36.913,81.912 82.468,81.912 z"
           inkscape:connector-curvature="0"
           style="fill-opacity:0;stroke:#00a859;stroke-width:4.50099993" />
      </g>
      <g
         id="g246">
        <path
           id="path248"
           d="m 247.087,276.342 c 0.275,4.784 9.227,4.921 9.778,0 l 0,-68.481 -9.778,0 z"
           inkscape:connector-curvature="0"
           style="fill:#d6cc75" />
        <path
           id="path250"
           d="m 247.087,276.342 c 0.275,4.784 9.227,4.921 9.778,0 l 0,-68.481 -9.778,0 z"
           inkscape:connector-curvature="0"
           style="fill-opacity:0;stroke:#201f1f;stroke-width:0.56699997" />
      </g>
      <path
         id="path252"
         d="m 250,207.884 0,71.898"
         inkscape:connector-curvature="0"
         style="fill-opacity:0;stroke:#373535;stroke-width:0.51599997" />
      <path
         id="path254"
         d="m 253.572,207.884 0,71.898"
         inkscape:connector-curvature="0"
         style="fill-opacity:0;stroke:#373535;stroke-width:0.51599997" />
      <g
         id="g256">
        <path
           id="path258"
           d="m 309.202,249.412 c 4.015,2.656 8.381,-2.971 4.647,-6.235 l -55.61,-40.542 -4.648,6.235 z"
           inkscape:connector-curvature="0"
           style="fill:#663300" />
        <path
           id="path260"
           d="m 309.202,249.412 c 4.015,2.656 8.381,-2.971 4.647,-6.235 l -55.61,-40.542 -4.648,6.235 z"
           inkscape:connector-curvature="0"
           style="fill-opacity:0;stroke:#201f1f;stroke-width:0.83099997;stroke-linecap:round" />
      </g>
      <path
         id="path262"
         d="m 256.373,204.033 58.238,42.826"
         inkscape:connector-curvature="0"
         style="fill-opacity:0;stroke:#373535;stroke-width:0.51599997" />
      <path
         id="path264"
         d="M 254.738,206.525 312.976,249.2"
         inkscape:connector-curvature="0"
         style="fill-opacity:0;stroke:#373535;stroke-width:0.51599997" />
      <g
         id="g266">
        <path
           id="path268"
           d="m 195.614,250.426 c -3.845,2.895 -8.534,-2.441 -5.007,-5.924 l 53.02,-43.826 5.007,5.924 z"
           inkscape:connector-curvature="0"
           style="fill:#663300" />
        <path
           id="path270"
           d="m 195.614,250.426 c -3.845,2.895 -8.534,-2.441 -5.007,-5.924 l 53.02,-43.826 5.007,5.924 z"
           inkscape:connector-curvature="0"
           style="fill-opacity:0;stroke:#201f1f;stroke-width:0.82800001" />
      </g>
      <path
         id="path272"
         d="m 245.554,201.784 -55.475,46.298"
         inkscape:connector-curvature="0"
         style="fill-opacity:0;stroke:#373535;stroke-width:0.51599997" />
      <path
         id="path274"
         d="m 247.409,204.213 -55.484,46.149"
         inkscape:connector-curvature="0"
         style="fill-opacity:0;stroke:#373535;stroke-width:0.51599997" />
      <g
         id="g276">
        <path
           id="path278"
           d="m 230.544,193.929 4.768,-6.373 -40.576,-29.674 -4.768,6.373 z"
           inkscape:connector-curvature="0"
           style="fill:#663300" />
        <path
           id="path280"
           d="m 230.544,193.929 4.768,-6.373 -40.576,-29.674 -4.768,6.373 z"
           inkscape:connector-curvature="0"
           style="fill-opacity:0;stroke:#201f1f;stroke-width:0.85000002" />
      </g>
      <path
         id="path282"
         d="m 193.91,160.244 31.101,22.783 9.39,6.878"
         inkscape:connector-curvature="0"
         style="fill-opacity:0;stroke:#373535;stroke-width:0.56699997" />
      <path
         id="path284"
         d="m 192.271,162.374 40.491,29.661"
         inkscape:connector-curvature="0"
         style="fill-opacity:0;stroke:#373535;stroke-width:0.56699997" />
      <g
         id="g286">
        <path
           id="path288"
           d="m 184.991,168.48 c -12.808,21.323 15.563,36.496 28.647,18.043 -6.06,0.82 -11.018,-4.374 -3.857,-4.921 3.306,-3.554 5.647,-7.107 7.162,-10.115 -2.203,-3.007 -2.066,-8.475 -1.653,-12.849 -1.652,-1.23 -3.305,-2.597 -4.958,-3.827 -2.616,4.374 -9.09,3.69 -13.083,4.921 -1.929,2.597 -4.132,5.467 -6.061,8.201 2.066,8.201 -4.545,7.245 -6.197,0.547 z"
           inkscape:connector-curvature="0"
           style="fill:#848688" />
        <path
           id="path290"
           d="m 184.991,168.48 c -12.808,21.323 15.563,36.496 28.647,18.043 -6.06,0.82 -11.018,-4.374 -3.857,-4.921 3.306,-3.554 5.647,-7.107 7.162,-10.115 -2.203,-3.007 -2.066,-8.475 -1.653,-12.849 -1.652,-1.23 -3.305,-2.597 -4.958,-3.827 -2.616,4.374 -9.09,3.69 -13.083,4.921 -1.929,2.597 -4.132,5.467 -6.061,8.201 2.066,8.201 -4.545,7.245 -6.197,0.547 z"
           inkscape:connector-curvature="0"
           style="fill-opacity:0;stroke:#201f1f;stroke-width:0.56699997" />
      </g>
      <g
         id="g292">
        <path
           id="path294"
           d="m 185.516,175.274 c -2.443,11.902 10.882,19.506 20.653,13.335 -6.329,-3.968 -4.441,-10.47 2.221,-9.808 2.11,-3.086 3.22,-3.968 4.774,-7.164 -1.776,-2.424 -0.888,-7.163 -0.554,-10.579 -1.333,-1.102 -1,-0.772 -2.333,-1.874 -2.22,3.637 -7.217,1.763 -10.437,2.755 -1.444,2.094 -3.553,4.96 -4.997,7.053 1.666,9.037 -5.774,9.809 -9.327,6.282 z"
           inkscape:connector-curvature="0"
           style="fill:#d1d3d4" />
        <path
           id="path296"
           d="m 185.516,175.274 c -2.443,11.902 10.882,19.506 20.653,13.335 -6.329,-3.968 -4.441,-10.47 2.221,-9.808 2.11,-3.086 3.22,-3.968 4.774,-7.164 -1.776,-2.424 -0.888,-7.163 -0.554,-10.579 -1.333,-1.102 -1,-0.772 -2.333,-1.874 -2.22,3.637 -7.217,1.763 -10.437,2.755 -1.444,2.094 -3.553,4.96 -4.997,7.053 1.666,9.037 -5.774,9.809 -9.327,6.282 z"
           inkscape:connector-curvature="0"
           style="fill-opacity:0;stroke:#373535;stroke-width:0.56699997" />
      </g>
      <g
         id="g298">
        <path
           id="path300"
           d="m 202.493,164.22 8.565,6.309 -4.278,5.721 -8.565,-6.309 z"
           inkscape:connector-curvature="0"
           style="fill:#848688" />
        <path
           id="path302"
           d="m 202.493,164.22 8.565,6.309 -4.278,5.721 -8.565,-6.309 z"
           inkscape:connector-curvature="0"
           style="fill-opacity:0;stroke:#373535;stroke-width:0.56699997;stroke-linecap:round;stroke-linejoin:round" />
      </g>
      <g
         id="g304">
        <path
           id="path306"
           d="m 216.235,159.251 c 3.443,0 6.234,-2.77 6.234,-6.188 0,-3.417 -2.791,-6.188 -6.234,-6.188 -3.444,0 -6.235,2.771 -6.235,6.188 0,3.418 2.791,6.188 6.235,6.188 z"
           inkscape:connector-curvature="0"
           style="fill:#d1d3d4" />
        <path
           id="path308"
           d="m 216.235,159.251 c 3.443,0 6.234,-2.77 6.234,-6.188 0,-3.417 -2.791,-6.188 -6.234,-6.188 -3.444,0 -6.235,2.771 -6.235,6.188 0,3.418 2.791,6.188 6.235,6.188 z"
           inkscape:connector-curvature="0"
           style="fill-opacity:0;stroke:#201f1f;stroke-width:0.56699997" />
      </g>
      <g
         id="g310">
        <path
           id="path312"
           d="m 216.472,156.025 c 1.604,0 2.904,-1.291 2.904,-2.884 0,-1.592 -1.3,-2.883 -2.904,-2.883 -1.605,0 -2.905,1.291 -2.905,2.883 0,1.593 1.3,2.884 2.905,2.884 z"
           inkscape:connector-curvature="0"
           style="fill:#848688" />
        <path
           id="path314"
           d="m 216.472,156.025 c 1.604,0 2.904,-1.291 2.904,-2.884 0,-1.592 -1.3,-2.883 -2.904,-2.883 -1.605,0 -2.905,1.291 -2.905,2.883 0,1.593 1.3,2.884 2.905,2.884 z"
           inkscape:connector-curvature="0"
           style="fill-opacity:0;stroke:#373535;stroke-width:0.56699997" />
      </g>
      <g
         id="g316">
        <path
           id="path318"
           d="m 271.002,192.557 -5.013,-6.169 39.348,-31.26 5.013,6.168 z"
           inkscape:connector-curvature="0"
           style="fill:#663300" />
        <path
           id="path320"
           d="m 271.002,192.557 -5.013,-6.169 39.348,-31.26 5.013,6.168 z"
           inkscape:connector-curvature="0"
           style="fill-opacity:0;stroke:#201f1f;stroke-width:0.83999997" />
      </g>
      <path
         id="path322"
         d="m 307.151,156.977 -39.222,31.295"
         inkscape:connector-curvature="0"
         style="fill-opacity:0;stroke:#373535;stroke-width:0.70899999" />
      <path
         id="path324"
         d="m 308.864,159.39 -39.223,31.296"
         inkscape:connector-curvature="0"
         style="fill-opacity:0;stroke:#373535;stroke-width:0.56699997" />
      <g
         id="g326">
        <path
           id="path328"
           d="m 315.01,164.575 c 13.684,20.78 -14.032,37.102 -27.872,19.201 6.089,0.571 10.827,-4.821 3.648,-5.074 -3.45,-3.416 -5.937,-6.871 -7.576,-9.813 2.076,-3.095 1.712,-8.553 1.117,-12.906 1.6,-1.297 3.194,-2.73 4.795,-4.027 2.796,4.263 9.235,3.315 13.277,4.38 2.034,2.516 4.356,5.294 6.396,7.947 -1.723,8.279 4.842,7.052 6.215,0.292 z"
           inkscape:connector-curvature="0"
           style="fill:#848688" />
        <path
           id="path330"
           d="m 315.01,164.575 c 13.684,20.78 -14.032,37.102 -27.872,19.201 6.089,0.571 10.827,-4.821 3.648,-5.074 -3.45,-3.416 -5.937,-6.871 -7.576,-9.813 2.076,-3.095 1.712,-8.553 1.117,-12.906 1.6,-1.297 3.194,-2.73 4.795,-4.027 2.796,4.263 9.235,3.315 13.277,4.38 2.034,2.516 4.356,5.294 6.396,7.947 -1.723,8.279 4.842,7.052 6.215,0.292 z"
           inkscape:connector-curvature="0"
           style="fill-opacity:0;stroke:#201f1f;stroke-width:0.56699997" />
      </g>
      <g
         id="g332">
        <path
           id="path334"
           d="m 314.719,171.623 c 2.936,11.792 -10.061,19.936 -20.081,14.17 6.159,-4.223 4.003,-10.642 -2.627,-9.708 -2.236,-2.997 -3.382,-3.833 -5.068,-6.962 1.674,-2.495 0.589,-7.194 0.114,-10.594 1.286,-1.155 0.967,-0.811 2.252,-1.967 2.37,3.543 7.285,1.466 10.544,2.325 1.529,2.033 3.756,4.809 5.286,6.843 -1.289,9.097 6.177,9.563 9.58,5.893 z"
           inkscape:connector-curvature="0"
           style="fill:#d1d3d4" />
        <path
           id="path336"
           d="m 314.719,171.623 c 2.936,11.792 -10.061,19.936 -20.081,14.17 6.159,-4.223 4.003,-10.642 -2.627,-9.708 -2.236,-2.997 -3.382,-3.833 -5.068,-6.962 1.674,-2.495 0.589,-7.194 0.114,-10.594 1.286,-1.155 0.967,-0.811 2.252,-1.967 2.37,3.543 7.285,1.466 10.544,2.325 1.529,2.033 3.756,4.809 5.286,6.843 -1.289,9.097 6.177,9.563 9.58,5.893 z"
           inkscape:connector-curvature="0"
           style="fill-opacity:0;stroke:#373535;stroke-width:0.56699997" />
      </g>
      <g
         id="g338">
        <path
           id="path340"
           d="m 297.15,161.025 -8.295,6.654 4.513,5.541 8.295,-6.654 z"
           inkscape:connector-curvature="0"
           style="fill:#848688" />
        <path
           id="path342"
           d="m 297.15,161.025 -8.295,6.654 4.513,5.541 8.295,-6.654 z"
           inkscape:connector-curvature="0"
           style="fill-opacity:0;stroke:#373535;stroke-width:0.56699997;stroke-linecap:round;stroke-linejoin:round" />
      </g>
      <g
         id="g344">
        <path
           id="path346"
           d="m 283.426,156.666 c -3.44,0.141 -6.344,-2.512 -6.487,-5.927 -0.142,-3.414 2.532,-6.297 5.973,-6.438 3.44,-0.141 6.344,2.513 6.486,5.928 0.143,3.414 -2.531,6.296 -5.972,6.437 z"
           inkscape:connector-curvature="0"
           style="fill:#d1d3d4" />
        <path
           id="path348"
           d="m 283.426,156.666 c -3.44,0.141 -6.344,-2.512 -6.487,-5.927 -0.142,-3.414 2.532,-6.297 5.973,-6.438 3.44,-0.141 6.344,2.513 6.486,5.928 0.143,3.414 -2.531,6.296 -5.972,6.437 z"
           inkscape:connector-curvature="0"
           style="fill-opacity:0;stroke:#201f1f;stroke-width:0.56699997" />
      </g>
      <g
         id="g350">
        <path
           id="path352"
           d="m 283.175,153.304 c -1.603,0.065 -2.956,-1.171 -3.022,-2.762 -0.066,-1.591 1.179,-2.934 2.782,-3 1.603,-0.065 2.956,1.171 3.022,2.762 0.067,1.591 -1.179,2.934 -2.782,3 z"
           inkscape:connector-curvature="0"
           style="fill:#848688" />
        <path
           id="path354"
           d="m 283.175,153.304 c -1.603,0.065 -2.956,-1.171 -3.022,-2.762 -0.066,-1.591 1.179,-2.934 2.782,-3 1.603,-0.065 2.956,1.171 3.022,2.762 0.067,1.591 -1.179,2.934 -2.782,3 z"
           inkscape:connector-curvature="0"
           style="fill-opacity:0;stroke:#373535;stroke-width:0.56699997" />
      </g>
      <g
         id="g356">
        <path
           id="path358"
           d="m 206.278,241.596 -7.226,6.046 c 15.688,17.524 48.998,-9.072 23.264,-30.673 l -5.371,6.698 c 13.478,11.485 -0.656,26.362 -10.667,17.929 z m -11.736,-0.454 c -5.378,-11.91 2.031,-25.476 18.546,-26.907 9.09,-4.647 30.438,-1.64 35.534,2.324 l -7.3,7.108 c -5.096,-2.324 -8.539,-2.598 -14.874,-2.734 l -3.994,-4.101 -5.509,6.835 -1.378,-1.367 c -9.783,1.456 -14.022,6.517 -13.057,12.191 z"
           inkscape:connector-curvature="0"
           style="fill:#d80200" />
        <path
           id="path360"
           d="m 206.278,241.596 -7.226,6.046 c 15.688,17.524 48.998,-9.072 23.264,-30.673 l -5.371,6.698 c 13.478,11.485 -0.656,26.362 -10.667,17.929 z m -11.736,-0.454 c -5.378,-11.91 2.031,-25.476 18.546,-26.907 9.09,-4.647 30.438,-1.64 35.534,2.324 l -7.3,7.108 c -5.096,-2.324 -8.539,-2.598 -14.874,-2.734 l -3.994,-4.101 -5.509,6.835 -1.378,-1.367 c -9.783,1.456 -14.022,6.517 -13.057,12.191 z"
           inkscape:connector-curvature="0"
           style="fill-opacity:0;stroke:#201f1f;stroke-width:0.56699997" />
      </g>
      <g
         id="g362">
        <path
           id="path364"
           d="m 301.202,233.9 c 2.66,-6.62 -0.923,-13.207 -12.125,-14.795 l -1.377,1.367 -5.509,-6.835 -3.994,4.101 c -1.791,-1.093 -5.509,-0.82 -10.881,1.093 l -0.964,-9.294 c 5.234,-3.964 17.78,-3.173 25.204,1.503 17.325,1.478 24.674,16.423 17.6,28.614 z m -5.118,5.917 8.174,6.04 c -16.225,14.59 -46.912,-11.022 -21.93,-32.083 l 5.372,6.698 c -12.428,10.646 -1.372,24.004 8.384,19.345 z"
           inkscape:connector-curvature="0"
           style="fill:#d80200" />
        <path
           id="path366"
           d="m 301.202,233.9 c 2.66,-6.62 -0.923,-13.207 -12.125,-14.795 l -1.377,1.367 -5.509,-6.835 -3.994,4.101 c -1.791,-1.093 -5.509,-0.82 -10.881,1.093 l -0.964,-9.294 c 5.234,-3.964 17.78,-3.173 25.204,1.503 17.325,1.478 24.674,16.423 17.6,28.614 z m -5.118,5.917 8.174,6.04 c -16.225,14.59 -46.912,-11.022 -21.93,-32.083 l 5.372,6.698 c -12.428,10.646 -1.372,24.004 8.384,19.345 z"
           inkscape:connector-curvature="0"
           style="fill-opacity:0;stroke:#201f1f;stroke-width:0.56699997" />
      </g>
      <g
         id="g368">
        <path
           id="path370"
           d="m 247.16,270.071 0,-11.755 c -8.677,-3.827 -6.887,-21.323 7.023,-34.992 0.276,-0.274 2.893,-2.871 3.168,-3.144 l -5.922,-6.971 c -25.479,22.28 -24.515,50.028 -4.269,56.862 z m 9.778,0.547 c 23.138,-6.698 19.97,-36.359 0.138,-49.208 L 256.525,221 c -2.066,2.187 -4.132,4.237 -5.784,6.424 2.203,0.957 3.58,2.187 5.508,3.828 8.539,8.748 10.054,26.107 0.689,27.748 z"
           inkscape:connector-curvature="0"
           style="fill:#d80200" />
        <path
           id="path372"
           d="m 247.16,270.071 0,-11.755 c -8.677,-3.827 -6.887,-21.323 7.023,-34.992 0.276,-0.274 2.893,-2.871 3.168,-3.144 l -5.922,-6.971 c -25.479,22.28 -24.515,50.028 -4.269,56.862 z m 9.778,0.547 c 23.138,-6.698 19.97,-36.359 0.138,-49.208 L 256.525,221 c -2.066,2.187 -4.132,4.237 -5.784,6.424 2.203,0.957 3.58,2.187 5.508,3.828 8.539,8.748 10.054,26.107 0.689,27.748 z"
           inkscape:connector-curvature="0"
           style="fill-opacity:0;stroke:#201f1f;stroke-width:0.56699997" />
      </g>
      <path
         id="path374"
         d="m 253.572,214.984 c -23.551,20.093 -23.138,43.603 -6.611,51.395 m 9.779,0.957 c 17.629,-6.014 15.838,-29.525 1.79,-41.554"
         inkscape:connector-curvature="0"
         style="fill-opacity:0;stroke:#373535;stroke-width:0.56699997;stroke-dasharray:2.829, 2.829" />
      <path
         id="path376"
         d="m 246.274,218.919 c -29.834,-11.766 -54.738,2.397 -49.767,19.466 m 5.099,8.205 c 14.749,13.316 36.733,-6.366 24.285,-22.75"
         inkscape:connector-curvature="0"
         style="fill-opacity:0;stroke:#373535;stroke-width:0.56699997;stroke-dasharray:2.829, 2.829" />
      <path
         id="path378"
         d="m 243.773,221.049 c -21.247,-9.258 -47.979,0.475 -44.31,14.974 m 4.57,8.27 c 8.299,9.375 30.839,-2.185 19.495,-19.007"
         inkscape:connector-curvature="0"
         style="fill-opacity:0;stroke:#373535;stroke-width:0.56699997;stroke-linecap:round;stroke-dasharray:2.829, 2.829" />
      <path
         id="path380"
         d="m 268.51,213.949 c 22.89,-3.83 41.923,7.018 35.847,20.95 m -6.266,7.273 c -9.471,5.076 -24.971,-3.708 -17.599,-19.475"
         inkscape:connector-curvature="0"
         style="fill-opacity:0;stroke:#373535;stroke-width:0.56699997;stroke-dasharray:2.829, 1.709" />
      <path
         id="path382"
         d="m 268.153,210.754 c 8.814,-1.367 14.151,-1.032 21.718,2.279 17.611,3.235 21.169,15.453 17.294,24.284 m -5.781,7.305 c -12.138,8.709 -33.199,-4.388 -24.28,-21.702"
         inkscape:connector-curvature="0"
         style="fill-opacity:0;stroke:#373535;stroke-width:0.56699997;stroke-dasharray:2.829, 2.829" />
      <path
         id="path384"
         d="m 255.632,217.937 c -20.486,16.603 -22.063,37.777 -8.485,45.116 m 9.819,0.963 c 14.667,-5.535 12.122,-25.987 -0.243,-36.214"
         inkscape:connector-curvature="0"
         style="fill-opacity:0;stroke:#373535;stroke-width:0.56699997;stroke-linecap:round;stroke-dasharray:2.841, 2.841" />
      <g
         id="g386">
        <path
           id="path388"
           d="m 214.088,198.299 c 5.783,10.115 19.97,12.712 32.64,4.784 -0.964,11.209 10.743,21.597 22.863,20.367 -1.516,-13.122 -2.204,-14.079 2.891,-22.964 14.737,-31.301 -30.299,-42.237 -40.904,-15.993 -5.371,6.972 -8.539,13.806 -17.49,13.806 z"
           inkscape:connector-curvature="0"
           style="fill:#fff115" />
        <path
           id="path390"
           d="m 214.088,198.299 c 5.783,10.115 19.97,12.712 32.64,4.784 -0.964,11.209 10.743,21.597 22.863,20.367 -1.516,-13.122 -2.204,-14.079 2.891,-22.964 14.737,-31.301 -30.299,-42.237 -40.904,-15.993 -5.371,6.972 -8.539,13.806 -17.49,13.806 z"
           inkscape:connector-curvature="0"
           style="fill-opacity:0;stroke:#201f1f;stroke-width:0.56699997" />
      </g>
      <g
         id="g392">
        <path
           id="path394"
           d="m 219.639,200.074 c 8.401,-2.734 11.293,-8.475 14.461,-13.532 9.641,-24.194 48.204,-14.626 34.294,13.259 -4.408,8.201 -4.27,11.345 -3.581,20.64 -10.33,-3.281 -15.701,-9.158 -15.839,-19.82 l -2.754,-0.82 c -8.126,5.877 -19.97,7.791 -26.581,0.273 z"
           inkscape:connector-curvature="0"
           style="fill:#373535" />
        <path
           id="path396"
           d="m 219.639,200.074 c 8.401,-2.734 11.293,-8.475 14.461,-13.532 9.641,-24.194 48.204,-14.626 34.294,13.259 -4.408,8.201 -4.27,11.345 -3.581,20.64 -10.33,-3.281 -15.701,-9.158 -15.839,-19.82 l -2.754,-0.82 c -8.126,5.877 -19.97,7.791 -26.581,0.273 z"
           inkscape:connector-curvature="0"
           style="fill-opacity:0;stroke:#373535;stroke-width:0.168" />
      </g>
      <g
         id="g398">
        <path
           id="path400"
           d="m 231.426,190.844 c 9.503,7.245 20.797,12.166 34.431,14.763 -0.275,0.82 -0.55,1.503 -0.826,2.46 -12.808,-2.187 -24.239,-7.244 -34.844,-15.309 0.413,-0.547 0.964,-1.094 1.239,-1.914 z"
           inkscape:connector-curvature="0"
           style="fill:#fff115" />
        <path
           id="path402"
           d="m 231.426,190.844 c 9.503,7.245 20.797,12.166 34.431,14.763 -0.275,0.82 -0.55,1.503 -0.826,2.46 -12.808,-2.187 -24.239,-7.244 -34.844,-15.309 0.413,-0.547 0.964,-1.094 1.239,-1.914 z"
           inkscape:connector-curvature="0"
           style="fill-opacity:0;stroke:#373535;stroke-width:0.21600001" />
      </g>
      <g
         id="g404">
        <path
           id="path406"
           d="m 228.625,194.667 c 9.365,7.245 22.449,12.712 36.221,15.173 -0.137,1.367 -0.137,1.503 -0.275,2.597 -12.809,-1.914 -26.994,-7.928 -37.599,-16.129 0.826,-0.684 1.102,-0.957 1.653,-1.641 z"
           inkscape:connector-curvature="0"
           style="fill:#fff115" />
        <path
           id="path408"
           d="m 228.625,194.667 c 9.365,7.245 22.449,12.712 36.221,15.173 -0.137,1.367 -0.137,1.503 -0.275,2.597 -12.809,-1.914 -26.994,-7.928 -37.599,-16.129 0.826,-0.684 1.102,-0.957 1.653,-1.641 z"
           inkscape:connector-curvature="0"
           style="fill-opacity:0;stroke:#373535;stroke-width:0.21600001" />
      </g>
      <g
         id="g410">
        <path
           id="path412"
           d="m 246.727,208.949 c 3.516,0 6.366,-2.828 6.366,-6.317 0,-3.489 -2.85,-6.318 -6.366,-6.318 -3.515,0 -6.365,2.829 -6.365,6.318 0,3.489 2.85,6.317 6.365,6.317 z"
           inkscape:connector-curvature="0"
           style="fill:#fff115" />
        <path
           id="path414"
           d="m 246.727,208.949 c 3.516,0 6.366,-2.828 6.366,-6.317 0,-3.489 -2.85,-6.318 -6.366,-6.318 -3.515,0 -6.365,2.829 -6.365,6.318 0,3.489 2.85,6.317 6.365,6.317 z"
           inkscape:connector-curvature="0"
           style="fill-opacity:0;stroke:#201f1f;stroke-width:0.56699997" />
      </g>
      <g
         id="g416">
        <path
           id="path418"
           d="m 247.034,206.13 c 1.92,0 3.477,-1.545 3.477,-3.451 0,-1.906 -1.557,-3.451 -3.477,-3.451 -1.92,0 -3.477,1.545 -3.477,3.451 0,1.906 1.557,3.451 3.477,3.451 z"
           inkscape:connector-curvature="0"
           style="fill:#d5373d" />
        <path
           id="path420"
           d="m 247.034,206.13 c 1.92,0 3.477,-1.545 3.477,-3.451 0,-1.906 -1.557,-3.451 -3.477,-3.451 -1.92,0 -3.477,1.545 -3.477,3.451 0,1.906 1.557,3.451 3.477,3.451 z"
           inkscape:connector-curvature="0"
           style="fill-opacity:0;stroke:#373535;stroke-width:0.168" />
      </g>
      <g
         id="g422">
        <path
           id="path424"
           d="m 239.284,161.38 c 0.414,-7.245 -8.263,-9.295 0.138,-19.547 4.82,-3.417 3.856,-7.517 1.24,-11.208 6.473,1.503 14.323,3.554 13.91,7.928 6.611,1.367 10.467,5.194 10.054,11.618 -0.138,4.784 -2.617,5.331 -2.754,11.482 -7.575,-0.137 -15.15,-0.273 -22.588,-0.273 z"
           inkscape:connector-curvature="0"
           style="fill:#d5373d" />
        <path
           id="path426"
           d="m 239.284,161.38 c 0.414,-7.245 -8.263,-9.295 0.138,-19.547 4.82,-3.417 3.856,-7.517 1.24,-11.208 6.473,1.503 14.323,3.554 13.91,7.928 6.611,1.367 10.467,5.194 10.054,11.618 -0.138,4.784 -2.617,5.331 -2.754,11.482 -7.575,-0.137 -15.15,-0.273 -22.588,-0.273 z"
           inkscape:connector-curvature="0"
           style="fill-opacity:0;stroke:#373535;stroke-width:0.168" />
      </g>
      <g
         id="g428">
        <path
           id="path430"
           d="m 263.137,163.503 c -0.138,2.597 -0.964,4.921 -2.479,6.834 -5.784,-1.503 -12.258,-0.957 -17.904,1.777 -2.479,-2.05 -3.994,-5.194 -4.27,-8.611 z"
           inkscape:connector-curvature="0"
           style="fill:#d6cc75" />
        <path
           id="path432"
           d="m 263.137,163.503 c -0.138,2.597 -0.964,4.921 -2.479,6.834 -5.784,-1.503 -12.258,-0.957 -17.904,1.777 -2.479,-2.05 -3.994,-5.194 -4.27,-8.611 z"
           inkscape:connector-curvature="0"
           style="fill-opacity:0;stroke:#201f1f;stroke-width:0.56699997" />
      </g>
      <g
         id="g434">
        <path
           id="path436"
           d="m 243.571,158.895 c 0.413,-4.921 -4.132,-8.064 -3.03,-12.849 1.515,-4.374 3.994,-7.107 4.683,-13.258 5.233,6.697 -1.653,11.345 0.275,18.043 0.138,-7.655 5.234,-8.475 2.892,-16.403 5.647,2.597 3.719,10.388 2.066,13.258 -2.204,6.562 2.341,7.519 1.102,11.209 -2.755,0 -5.371,0 -7.988,0 z"
           inkscape:connector-curvature="0"
           style="fill:#ffcc2a" />
        <path
           id="path438"
           d="m 243.571,158.895 c 0.413,-4.921 -4.132,-8.064 -3.03,-12.849 1.515,-4.374 3.994,-7.107 4.683,-13.258 5.233,6.697 -1.653,11.345 0.275,18.043 0.138,-7.655 5.234,-8.475 2.892,-16.403 5.647,2.597 3.719,10.388 2.066,13.258 -2.204,6.562 2.341,7.519 1.102,11.209 -2.755,0 -5.371,0 -7.988,0 z"
           inkscape:connector-curvature="0"
           style="fill-opacity:0;stroke:#373535;stroke-width:0.168" />
      </g>
      <g
         id="g440">
        <path
           id="path442"
           d="m 253.573,158.895 c 0,-3.554 -1.653,-4.374 -1.653,-8.064 0,-3.828 2.203,-5.741 1.653,-11.482 3.305,1.23 2.892,6.561 3.305,9.705 1.652,-2.187 0.688,-5.332 1.102,-8.065 5.646,5.468 0,10.525 1.928,18.043 -2.204,0 -4.132,0 -6.335,-0.137 z"
           inkscape:connector-curvature="0"
           style="fill:#fff115" />
        <path
           id="path444"
           d="m 253.573,158.895 c 0,-3.554 -1.653,-4.374 -1.653,-8.064 0,-3.828 2.203,-5.741 1.653,-11.482 3.305,1.23 2.892,6.561 3.305,9.705 1.652,-2.187 0.688,-5.332 1.102,-8.065 5.646,5.468 0,10.525 1.928,18.043 -2.204,0 -4.132,0 -6.335,-0.137 z"
           inkscape:connector-curvature="0"
           style="fill-opacity:0;stroke:#373535;stroke-width:0.168" />
      </g>
      <g
         id="g446">
        <path
           id="path448"
           d="m 237.142,158.54 26.718,0 c 2.617,0.144 2.479,4.781 0,5.216 l -26.718,0 c -2.066,-0.58 -2.066,-4.202 0,-5.216 z"
           inkscape:connector-curvature="0"
           style="fill:#d6cc75" />
        <path
           id="path450"
           d="m 237.142,158.54 26.718,0 c 2.617,0.144 2.479,4.781 0,5.216 l -26.718,0 c -2.066,-0.58 -2.066,-4.202 0,-5.216 z"
           inkscape:connector-curvature="0"
           style="fill-opacity:0;stroke:#201f1f;stroke-width:0.56699997" />
      </g>
      <g
         id="g452">
        <path
           id="path454"
           d="m 185.016,202.064 -7.733,-7.65 c -5.026,-4.324 -2.628,-7.532 3.185,-4.58 l 9.88,4.562 32.758,22.438 -5.332,7.668 z"
           inkscape:connector-curvature="0"
           style="fill:#d6cc75" />
        <path
           id="path456"
           d="m 185.016,202.064 -7.733,-7.65 c -5.026,-4.324 -2.628,-7.532 3.185,-4.58 l 9.88,4.562 32.758,22.438 -5.332,7.668 z"
           inkscape:connector-curvature="0"
           style="fill-opacity:0;stroke:#201f1f;stroke-width:0.56699997" />
      </g>
      <g
         id="g458">
        <path
           id="path460"
           d="m 223.925,216.404 -10.628,-7.281 -6.141,8.83 10.629,7.28 z"
           inkscape:connector-curvature="0"
           style="fill:#d6cc75" />
        <path
           id="path462"
           d="m 223.925,216.404 -10.628,-7.281 -6.141,8.83 10.629,7.28 z"
           inkscape:connector-curvature="0"
           style="fill-opacity:0;stroke:#201f1f;stroke-width:0.56699997;stroke-linecap:round;stroke-linejoin:round" />
      </g>
      <g
         id="g464">
        <path
           id="path466"
           d="m 197.85,198.654 -5.482,-3.755 -6.14,8.83 5.482,3.754 z"
           inkscape:connector-curvature="0"
           style="fill:#d2ad6d" />
        <path
           id="path468"
           d="m 197.85,198.654 -5.482,-3.755 -6.14,8.83 5.482,3.754 z"
           inkscape:connector-curvature="0"
           style="fill-opacity:0;stroke:#373535;stroke-width:0.56699997;stroke-linecap:round;stroke-linejoin:round" />
      </g>
      <g
         id="g470">
        <path
           id="path472"
           d="m 221.425,216.758 -7.528,-5.156 -4.349,6.254 7.528,5.156 z"
           inkscape:connector-curvature="0"
           style="fill:#d6cc75" />
        <path
           id="path474"
           d="m 221.425,216.758 -7.528,-5.156 -4.349,6.254 7.528,5.156 z"
           inkscape:connector-curvature="0"
           style="fill-opacity:0;stroke:#373535;stroke-width:0.56699997;stroke-linecap:round;stroke-linejoin:round" />
      </g>
      <g
         id="g476">
        <path
           id="path478"
           d="m 195.707,199.009 -3.272,-2.241 -4.349,6.253 3.272,2.241 z"
           inkscape:connector-curvature="0"
           style="fill:#d2ad6d" />
        <path
           id="path480"
           d="m 195.707,199.009 -3.272,-2.241 -4.349,6.253 3.272,2.241 z"
           inkscape:connector-curvature="0"
           style="fill-opacity:0;stroke:#373535;stroke-width:0.56699997;stroke-linecap:round;stroke-linejoin:round" />
      </g>
      <g
         id="g482">
        <path
           id="path484"
           d="m 316.88,197.813 7.242,-8.109 c 4.747,-4.624 2.154,-7.679 -3.464,-4.377 l -9.578,5.16 -31.298,24.404 5.799,7.326 z"
           inkscape:connector-curvature="0"
           style="fill:#d6cc75" />
        <path
           id="path486"
           d="m 316.88,197.813 7.242,-8.109 c 4.747,-4.624 2.154,-7.679 -3.464,-4.377 l -9.578,5.16 -31.298,24.404 5.799,7.326 z"
           inkscape:connector-curvature="0"
           style="fill-opacity:0;stroke:#201f1f;stroke-width:0.56699997" />
      </g>
      <g
         id="g488">
        <path
           id="path490"
           d="m 278.933,214.628 10.155,-7.918 6.678,8.437 -10.155,7.918 z"
           inkscape:connector-curvature="0"
           style="fill:#d6cc75" />
        <path
           id="path492"
           d="m 278.933,214.628 10.155,-7.918 6.678,8.437 -10.155,7.918 z"
           inkscape:connector-curvature="0"
           style="fill-opacity:0;stroke:#373535;stroke-width:0.56699997;stroke-linecap:round;stroke-linejoin:round" />
      </g>
      <g
         id="g494">
        <path
           id="path496"
           d="m 303.937,195.104 5.237,-4.084 6.678,8.437 -5.237,4.083 z"
           inkscape:connector-curvature="0"
           style="fill:#d2ad6d" />
        <path
           id="path498"
           d="m 303.937,195.104 5.237,-4.084 6.678,8.437 -5.237,4.083 z"
           inkscape:connector-curvature="0"
           style="fill-opacity:0;stroke:#201f1f;stroke-width:0.56699997;stroke-linecap:round;stroke-linejoin:round" />
      </g>
      <g
         id="g500">
        <path
           id="path502"
           d="m 281.434,214.628 7.192,-5.607 4.729,5.975 -7.192,5.607 z"
           inkscape:connector-curvature="0"
           style="fill:#d6cc75" />
        <path
           id="path504"
           d="m 281.434,214.628 7.192,-5.607 4.729,5.975 -7.192,5.607 z"
           inkscape:connector-curvature="0"
           style="fill-opacity:0;stroke:#373535;stroke-width:0.56699997;stroke-linecap:round;stroke-linejoin:round" />
      </g>
      <g
         id="g506">
        <path
           id="path508"
           d="m 306.08,195.459 3.126,-2.438 4.73,5.975 -3.127,2.438 z"
           inkscape:connector-curvature="0"
           style="fill:#d2ad6d" />
        <path
           id="path510"
           d="m 306.08,195.459 3.126,-2.438 4.73,5.975 -3.127,2.438 z"
           inkscape:connector-curvature="0"
           style="fill-opacity:0;stroke:#373535;stroke-width:0.56699997;stroke-linecap:round;stroke-linejoin:round" />
      </g>
      <g
         id="g512">
        <path
           id="path514"
           d="m 129.188,193.136 0,28.886 -1.643,0 0,1.793 -1.146,0 0,8.567 25.998,0 0,-8.567 -1.146,0 0,-1.793 -1.643,0 0,-28.886 0.697,0 0,-1.295 0.896,0 0,-2.191 -23.607,0 0,2.191 0.897,0 0,1.295 z"
           inkscape:connector-curvature="0"
           style="fill:#d2ad6d" />
        <path
           id="path516"
           d="m 129.188,193.136 0,28.886 -1.643,0 0,1.793 -1.146,0 0,8.567 25.998,0 0,-8.567 -1.146,0 0,-1.793 -1.643,0 0,-28.886 0.697,0 0,-1.295 0.896,0 0,-2.191 -23.607,0 0,2.191 0.897,0 0,1.295 z"
           inkscape:connector-curvature="0"
           style="fill-opacity:0;stroke:#373535;stroke-width:0.21600001" />
      </g>
      <g
         id="g518">
        <path
           id="path520"
           d="m 136.317,181.655 0,-2.171 6.001,0 0,2.176 c 3.964,1.084 6.891,4.268 6.914,8.047 l -19.908,0 c 0.024,-3.785 2.958,-6.972 6.993,-8.052 z"
           inkscape:connector-curvature="0"
           style="fill:#d2ad6d" />
        <path
           id="path522"
           d="m 136.317,181.655 0,-2.171 6.001,0 0,2.176 c 3.964,1.084 6.891,4.268 6.914,8.047 l -19.908,0 c 0.024,-3.785 2.958,-6.972 6.993,-8.052 z"
           inkscape:connector-curvature="0"
           style="fill-opacity:0;stroke:#000000;stroke-width:0.221" />
      </g>
      <path
         id="path524"
         d="m 132.019,194.266 0,0 c 0.47,0 0.854,0.384 0.854,0.854 l 0,24.703 c 0,0.47 -0.384,0.854 -0.854,0.854 l 0,0 c -0.47,0 -0.854,-0.384 -0.854,-0.854 l 0,-24.703 c 0,-0.47 0.384,-0.854 0.854,-0.854 z"
         inkscape:connector-curvature="0"
         style="fill-opacity:0;stroke:#373535;stroke-width:0.21600001" />
      <path
         id="path526"
         d="m 139.395,194.266 0,0 c 0.47,0 0.854,0.384 0.854,0.854 l 0,24.703 c 0,0.47 -0.384,0.854 -0.854,0.854 l 0,0 c -0.47,0 -0.854,-0.384 -0.854,-0.854 l 0,-24.703 c 0,-0.47 0.384,-0.854 0.854,-0.854 z"
         inkscape:connector-curvature="0"
         style="fill-opacity:0;stroke:#373535;stroke-width:0.21600001" />
      <path
         id="path528"
         d="m 143.083,194.266 0.001,0 c 0.469,0 0.853,0.384 0.853,0.854 l 0,24.703 c 0,0.47 -0.384,0.854 -0.853,0.854 l -0.001,0 c -0.47,0 -0.854,-0.384 -0.854,-0.854 l 0,-24.703 c 0,-0.47 0.384,-0.854 0.854,-0.854 z"
         inkscape:connector-curvature="0"
         style="fill-opacity:0;stroke:#373535;stroke-width:0.21600001" />
      <path
         id="path530"
         d="m 146.771,194.266 0.001,0 c 0.469,0 0.854,0.384 0.854,0.854 l 0,24.703 c 0,0.47 -0.385,0.854 -0.854,0.854 l -0.001,0 c -0.47,0 -0.853,-0.384 -0.853,-0.854 l 0,-24.703 c 0,-0.47 0.383,-0.854 0.853,-0.854 z"
         inkscape:connector-curvature="0"
         style="fill-opacity:0;stroke:#373535;stroke-width:0.21600001" />
      <path
         id="path532"
         d="m 135.707,194.266 0,0 c 0.47,0 0.854,0.384 0.854,0.854 l 0,24.703 c 0,0.47 -0.384,0.854 -0.854,0.854 l 0,0 c -0.47,0 -0.854,-0.384 -0.854,-0.854 l 0,-24.703 c 0,-0.47 0.384,-0.854 0.854,-0.854 z"
         inkscape:connector-curvature="0"
         style="fill-opacity:0;stroke:#373535;stroke-width:0.21600001" />
      <g
         id="g534">
        <path
           id="path536"
           d="m 151.63,196.039 -1.897,0 c -0.056,0 -0.101,0.045 -0.101,0.101 l 0,8.482 c 0,0.055 0.045,0.101 0.101,0.101 l 1.897,0 c 0.056,0 0.101,-0.046 0.101,-0.101 l 0,-8.482 c 0,-0.056 -0.045,-0.101 -0.101,-0.101 z"
           inkscape:connector-curvature="0"
           style="fill:#d2ad6d" />
        <path
           id="path538"
           d="m 151.63,196.039 -1.897,0 c -0.056,0 -0.101,0.045 -0.101,0.101 l 0,8.482 c 0,0.055 0.045,0.101 0.101,0.101 l 1.897,0 c 0.056,0 0.101,-0.046 0.101,-0.101 l 0,-8.482 c 0,-0.056 -0.045,-0.101 -0.101,-0.101 z"
           inkscape:connector-curvature="0"
           style="fill-opacity:0;stroke:#373535;stroke-width:0.21600001" />
      </g>
      <g
         id="g540">
        <path
           id="path542"
           d="m 152.462,194.851 -10e-4,0 c -0.402,0 -0.729,0.328 -0.729,0.729 l 0,9.601 c 0,0.402 0.327,0.73 0.729,0.73 l 10e-4,0 c 0.401,0 0.73,-0.328 0.73,-0.73 l 0,-9.601 c 0,-0.401 -0.329,-0.729 -0.73,-0.729 z"
           inkscape:connector-curvature="0"
           style="fill:#d2ad6d" />
        <path
           id="path544"
           d="m 152.462,194.851 -10e-4,0 c -0.402,0 -0.729,0.328 -0.729,0.729 l 0,9.601 c 0,0.402 0.327,0.73 0.729,0.73 l 10e-4,0 c 0.401,0 0.73,-0.328 0.73,-0.73 l 0,-9.601 c 0,-0.401 -0.329,-0.729 -0.73,-0.729 z"
           inkscape:connector-curvature="0"
           style="fill-opacity:0;stroke:#373535;stroke-width:0.21600001" />
      </g>
      <g
         id="g546">
        <path
           id="path548"
           d="m 153.774,195.948 -0.001,0 c -0.276,0 -0.502,0.225 -0.502,0.501 l 0,7.864 c 0,0.275 0.226,0.501 0.502,0.501 l 0.001,0 c 0.275,0 0.501,-0.226 0.501,-0.501 l 0,-7.864 c 0,-0.276 -0.226,-0.501 -0.501,-0.501 z"
           inkscape:connector-curvature="0"
           style="fill:#d2ad6d" />
        <path
           id="path550"
           d="m 153.774,195.948 -0.001,0 c -0.276,0 -0.502,0.225 -0.502,0.501 l 0,7.864 c 0,0.275 0.226,0.501 0.502,0.501 l 0.001,0 c 0.275,0 0.501,-0.226 0.501,-0.501 l 0,-7.864 c 0,-0.276 -0.226,-0.501 -0.501,-0.501 z"
           inkscape:connector-curvature="0"
           style="fill-opacity:0;stroke:#373535;stroke-width:0.21600001" />
      </g>
      <g
         id="g552">
        <path
           id="path554"
           d="m 127.216,196.039 1.898,0 c 0.055,0 0.1,0.045 0.1,0.101 l 0,8.482 c 0,0.055 -0.045,0.101 -0.1,0.101 l -1.898,0 c -0.055,0 -0.101,-0.046 -0.101,-0.101 l 0,-8.482 c 0,-0.056 0.046,-0.101 0.101,-0.101 z"
           inkscape:connector-curvature="0"
           style="fill:#d2ad6d" />
        <path
           id="path556"
           d="m 127.216,196.039 1.898,0 c 0.055,0 0.1,0.045 0.1,0.101 l 0,8.482 c 0,0.055 -0.045,0.101 -0.1,0.101 l -1.898,0 c -0.055,0 -0.101,-0.046 -0.101,-0.101 l 0,-8.482 c 0,-0.056 0.046,-0.101 0.101,-0.101 z"
           inkscape:connector-curvature="0"
           style="fill-opacity:0;stroke:#373535;stroke-width:0.21600001" />
      </g>
      <g
         id="g558">
        <path
           id="path560"
           d="m 126.384,194.851 0.001,0 c 0.401,0 0.73,0.328 0.73,0.729 l 0,9.601 c 0,0.402 -0.329,0.73 -0.73,0.73 l -0.001,0 c -0.401,0 -0.73,-0.328 -0.73,-0.73 l 0,-9.601 c 0,-0.401 0.329,-0.729 0.73,-0.729 z"
           inkscape:connector-curvature="0"
           style="fill:#d2ad6d" />
        <path
           id="path562"
           d="m 126.384,194.851 0.001,0 c 0.401,0 0.73,0.328 0.73,0.729 l 0,9.601 c 0,0.402 -0.329,0.73 -0.73,0.73 l -0.001,0 c -0.401,0 -0.73,-0.328 -0.73,-0.73 l 0,-9.601 c 0,-0.401 0.329,-0.729 0.73,-0.729 z"
           inkscape:connector-curvature="0"
           style="fill-opacity:0;stroke:#373535;stroke-width:0.21600001" />
      </g>
      <g
         id="g564">
        <path
           id="path566"
           d="m 125.073,195.948 0,0 c 0.276,0 0.502,0.225 0.502,0.501 l 0,7.864 c 0,0.275 -0.226,0.501 -0.502,0.501 l 0,0 c -0.276,0 -0.502,-0.226 -0.502,-0.501 l 0,-7.864 c 0,-0.276 0.226,-0.501 0.502,-0.501 z"
           inkscape:connector-curvature="0"
           style="fill:#d2ad6d" />
        <path
           id="path568"
           d="m 125.073,195.948 0,0 c 0.276,0 0.502,0.225 0.502,0.501 l 0,7.864 c 0,0.275 -0.226,0.501 -0.502,0.501 l 0,0 c -0.276,0 -0.502,-0.226 -0.502,-0.501 l 0,-7.864 c 0,-0.276 0.226,-0.501 0.502,-0.501 z"
           inkscape:connector-curvature="0"
           style="fill-opacity:0;stroke:#373535;stroke-width:0.21600001" />
      </g>
      <g
         id="g570">
        <path
           id="path572"
           d="m 139.396,195.981 c 2.423,0 4.399,1.977 4.399,4.4 0,2.423 -1.976,4.399 -4.399,4.399 -2.423,0 -4.4,-1.976 -4.4,-4.399 0,-2.423 1.977,-4.4 4.4,-4.4 z m 0,1.467 c 1.615,0 2.933,1.317 2.933,2.933 0,1.615 -1.318,2.933 -2.933,2.933 -1.616,0 -2.933,-1.318 -2.933,-2.933 0,-1.616 1.317,-2.933 2.933,-2.933 z"
           inkscape:connector-curvature="0"
           style="fill:#d2ad6d" />
        <path
           id="path574"
           d="m 139.396,195.981 c 2.423,0 4.399,1.977 4.399,4.4 0,2.423 -1.976,4.399 -4.399,4.399 -2.423,0 -4.4,-1.976 -4.4,-4.399 0,-2.423 1.977,-4.4 4.4,-4.4 z m 0,1.467 c 1.615,0 2.933,1.317 2.933,2.933 0,1.615 -1.318,2.933 -2.933,2.933 -1.616,0 -2.933,-1.318 -2.933,-2.933 0,-1.616 1.317,-2.933 2.933,-2.933 z"
           inkscape:connector-curvature="0"
           style="fill-opacity:0;stroke:#373535;stroke-width:0.21600001" />
      </g>
      <g
         id="g576">
        <path
           id="path578"
           d="m 139.396,197.096 c 1.814,0 3.285,1.471 3.285,3.285 0,1.814 -1.471,3.285 -3.285,3.285 -1.814,0 -3.285,-1.471 -3.285,-3.285 0,-1.814 1.471,-3.285 3.285,-3.285 z"
           inkscape:connector-curvature="0"
           style="fill:#d2ad6d" />
        <path
           id="path580"
           d="m 139.396,197.096 c 1.814,0 3.285,1.471 3.285,3.285 0,1.814 -1.471,3.285 -3.285,3.285 -1.814,0 -3.285,-1.471 -3.285,-3.285 0,-1.814 1.471,-3.285 3.285,-3.285 z"
           inkscape:connector-curvature="0"
           style="fill-opacity:0;stroke:#373535;stroke-width:0.21600001" />
      </g>
      <path
         id="path582"
         d="m 126.371,232.347 25.949,0 0,-8.579 -25.949,0 z"
         inkscape:connector-curvature="0"
         style="fill-opacity:0;stroke:#373535;stroke-width:0.21600001" />
      <g
         id="g584">
        <path
           id="path586"
           d="m 363.288,230.832 -0.235,-0.736 7.221,-2.247 -1.515,-4.936 -7.268,2.262 -0.223,-0.704 7.27,-2.278 -1.519,-4.952 -7.336,2.299 -0.212,-0.726 7.331,-2.281 -1.519,-4.952 -7.397,2.301 -0.223,-0.703 7.403,-2.303 -1.551,-5.056 -7.565,2.419 8.414,26.376 -1.823,0.319 -16.758,-54.618 1.139,-0.378 8.695,27.257 7.673,-2.11 -1.479,-4.818 -7.484,2.344 -0.246,-0.714 7.513,-2.337 -1.514,-4.936 -7.561,2.351 -0.223,-0.703 7.558,-2.384 -1.516,-4.939 -7.616,2.369 -0.223,-0.703 7.623,-2.371 -1.519,-4.952 -7.688,2.391 -0.223,-0.703 7.69,-2.41 -1.709,-5.567 1.139,-0.378 17.442,54.677 -1.823,0.319 -0.939,-3.061 z"
           inkscape:connector-curvature="0"
           style="fill:#d2ad6d" />
        <path
           id="path588"
           d="m 363.288,230.832 -0.235,-0.736 7.221,-2.247 -1.515,-4.936 -7.268,2.262 -0.223,-0.704 7.27,-2.278 -1.519,-4.952 -7.336,2.299 -0.212,-0.726 7.331,-2.281 -1.519,-4.952 -7.397,2.301 -0.223,-0.703 7.403,-2.303 -1.551,-5.056 -7.565,2.419 8.414,26.376 -1.823,0.319 -16.758,-54.618 1.139,-0.378 8.695,27.257 7.673,-2.11 -1.479,-4.818 -7.484,2.344 -0.246,-0.714 7.513,-2.337 -1.514,-4.936 -7.561,2.351 -0.223,-0.703 7.558,-2.384 -1.516,-4.939 -7.616,2.369 -0.223,-0.703 7.623,-2.371 -1.519,-4.952 -7.688,2.391 -0.223,-0.703 7.69,-2.41 -1.709,-5.567 1.139,-0.378 17.442,54.677 -1.823,0.319 -0.939,-3.061 z"
           inkscape:connector-curvature="0"
           style="fill-opacity:0;stroke:#84705a;stroke-width:0.56699997" />
      </g>
      <g
         id="g590">
        <path
           id="path592"
           d="m 350.256,235.257 c -0.117,0.339 -0.482,0.554 -0.809,0.43 l 0,0 c -0.305,-0.115 -0.454,-0.525 -0.338,-0.864 l 16.699,-48.558 -0.164,-0.062 1.095,-3.028 c -1.653,-1.273 -2.611,-0.871 -3.456,0.045 -0.445,0.449 -1.645,1.937 -0.121,-0.34 1.761,-2.658 3.967,-0.764 3.967,-0.764 0.538,-1.562 1.947,-4.353 2.523,-5.489 0.377,-0.711 0.373,-0.624 0.231,0.176 -0.173,0.964 -0.875,4.082 -1.437,5.871 -0.29,0.92 -1.35,4.079 -1.35,4.079 l -0.141,-0.053 z"
           inkscape:connector-curvature="0"
           style="fill:#d2ad6d" />
        <path
           id="path594"
           d="m 350.256,235.257 c -0.117,0.339 -0.482,0.554 -0.809,0.43 l 0,0 c -0.305,-0.115 -0.454,-0.525 -0.338,-0.864 l 16.699,-48.558 -0.164,-0.062 1.095,-3.028 c -1.653,-1.273 -2.611,-0.871 -3.456,0.045 -0.445,0.449 -1.645,1.937 -0.121,-0.34 1.761,-2.658 3.967,-0.764 3.967,-0.764 0.538,-1.562 1.947,-4.353 2.523,-5.489 0.377,-0.711 0.373,-0.624 0.231,0.176 -0.173,0.964 -0.875,4.082 -1.437,5.871 -0.29,0.92 -1.35,4.079 -1.35,4.079 l -0.141,-0.053 z"
           inkscape:connector-curvature="0"
           style="fill-opacity:0;stroke:#84705a;stroke-width:0.186" />
      </g>
      <path
         id="path596"
         d="m 231.217,333.901 19.316,-31.462 c 0,0 18.511,31.462 19.383,31.462 0.871,0 -38.699,0 -38.699,0"
         inkscape:connector-curvature="0"
         style="fill:#d2ad6d" />
      <path
         id="path598"
         d="m 234.151,332.39 16.407,-26.724 c 0,0 15.722,26.724 16.463,26.724 0.739,0 -32.87,0 -32.87,0"
         inkscape:connector-curvature="0"
         style="fill:#815aa3" />
      <path
         id="path600"
         d="m 254.927,331.882 c -0.002,0.851 1.066,0.508 1.098,-0.129 l 0.739,-3.145 0.749,0 0.919,3.412 c 0.074,0.527 1.044,0.519 0.922,-0.085 l -0.231,-3.797 0.791,-0.026 c 0.465,-0.144 0.592,-0.694 0.322,-1.1 l -2.243,-3.942 c -0.203,-0.638 0.109,-0.594 0.388,-0.516 0.902,0.452 1.494,1.238 1.775,2.356 0.356,0.467 1.178,-0.014 0.968,-0.645 -0.961,-1.851 -2.04,-3.49 -3.937,-3.648 l -0.278,-0.315 c 0.603,-0.762 0.045,-2.144 -0.95,-2.073 -1.612,0.321 -1.065,2.394 -0.18,2.299 l 0.055,0.593 c -1.275,0.531 -1.874,2.246 -2.811,3.37 -1.027,1.29 -0.411,1.738 0.283,1.226 l 1.589,-2.033 c 0.343,-0.557 0.734,-0.532 0.71,-0.129 -0.276,1.659 -0.764,3.195 -1.84,4.389 -0.141,0.232 -0.078,0.664 0.333,0.664 l 1.197,0 z m -10.813,-9.328 c -0.086,-0.796 -0.397,-1.044 -1.226,-0.452 l -1.388,1.817 c -0.752,0.961 -1.733,0.482 -1.13,-0.526 1.257,-2.246 2.614,-4.134 4.648,-3.615 l 0.162,-0.387 c -0.839,-1.61 -0.054,-2.547 1.55,-2.07 1.608,0.88 0.35,2.38 -0.609,2.356 l -0.263,0.391 c 1.602,0.582 1.592,1.872 2.969,2.809 l 0.968,0.258 c 0.839,0.043 1.065,0.538 0.387,1.097 -0.656,0.307 -1.581,0.103 -3.098,-1.226 -0.302,-0.355 -0.667,-0.42 -0.71,0.193 0.236,2.981 1.216,5.671 0.71,8.941 -0.495,0.452 -1.313,0.646 -1.485,-0.29 -0.15,-1.512 0.205,-4.099 -0.807,-4.551 -1.16,0.125 -2.294,2.735 -2.969,4.68 -0.215,0.742 -1.359,0.466 -1.09,-0.406 0.546,-3.2 2.287,-5.948 3.381,-9.019 z m 4.007,2.946 1.66,1.314 c 0.287,0.103 0.462,0 0.526,-0.311 -0.781,-0.886 -0.629,-1.784 0.417,-1.87 1.186,0.237 1.306,1.08 0.43,1.882 -0.028,0.215 -0.08,0.541 0.275,0.561 l 1.934,-0.836 c 0.605,-0.314 0.756,0.159 0.311,0.49 l -1.756,0.919 c -0.78,1.067 0.554,2.801 0.849,4.417 -0.084,0.39 -0.741,0.482 -0.896,-0.011 -0.249,-0.606 -0.556,-1.161 -1.027,-1.576 -0.189,-0.251 -0.496,-0.291 -0.656,0 -0.159,0.585 -0.554,1.17 -0.968,1.755 -0.183,0.262 -0.845,0.264 -0.617,-0.369 l 1.107,-3.511 c 0.067,-0.312 -0.055,-0.685 -0.311,-0.968 l -1.564,-1.265 c -0.478,-0.386 0,-0.844 0.286,-0.621"
         inkscape:connector-curvature="0"
         style="fill:#d2ad6d" />
      <g
         id="g602">
        <path
           id="path604"
           d="m 265.323,80.518 c 2.013,0.454 3.658,5.322 1.476,7.759 -6.576,8.482 -8.805,9 -12.098,10.361 -1.756,0.726 -3.798,3.498 -0.906,6.704 -3.861,-4.426 1.55,-8.381 4.584,-6.607 3.624,2.119 3.262,7.492 -2.448,7.671 -7.071,-0.635 -17.395,-1.711 -24.631,-2.24 -3.491,-8.852 11.746,-11.939 13.782,-18.888 l 20.013,2.447 c -3.061,-1.801 -2.012,-8.022 0.238,-7.213 0.974,0.689 1.581,0.521 2.279,3.006 0.256,0.909 -0.641,3.527 -2.577,4.196 l -24.613,-3.047 c -2.199,-1.94 1.033,-5.975 3.811,-6.621 z"
           inkscape:connector-curvature="0"
           style="fill:#fefefe" />
        <path
           id="path606"
           d="m 265.323,80.518 c 2.013,0.454 3.658,5.322 1.476,7.759 -6.576,8.482 -8.805,9 -12.098,10.361 -1.756,0.726 -3.798,3.498 -0.906,6.704 -3.861,-4.426 1.55,-8.381 4.584,-6.607 3.624,2.119 3.262,7.492 -2.448,7.671 -7.071,-0.635 -17.395,-1.711 -24.631,-2.24 -3.491,-8.852 11.746,-11.939 13.782,-18.888 l 20.013,2.447 c -3.061,-1.801 -2.012,-8.022 0.238,-7.213 0.974,0.689 1.581,0.521 2.279,3.006 0.256,0.909 -0.641,3.527 -2.577,4.196 l -24.613,-3.047 c -2.199,-1.94 1.033,-5.975 3.811,-6.621 z"
           inkscape:connector-curvature="0"
           style="fill-opacity:0;stroke:#373535;stroke-width:0.56699997;stroke-linecap:round;stroke-linejoin:round" />
      </g>
      <g
         id="g608">
        <path
           id="path610"
           d="m 265.251,80.717 c 1.211,0 2.193,1.554 2.193,3.47 0,1.917 -0.982,3.47 -2.193,3.47 -1.211,0 -2.193,-1.553 -2.193,-3.47 0,-1.916 0.982,-3.47 2.193,-3.47 z"
           inkscape:connector-curvature="0"
           style="fill:#fefefe" />
        <path
           id="path612"
           d="m 265.251,80.717 c 1.211,0 2.193,1.554 2.193,3.47 0,1.917 -0.982,3.47 -2.193,3.47 -1.211,0 -2.193,-1.553 -2.193,-3.47 0,-1.916 0.982,-3.47 2.193,-3.47 z"
           inkscape:connector-curvature="0"
           style="fill-opacity:0;stroke:#373535;stroke-width:0.56699997" />
      </g>
      <g
         id="g614">
        <path
           id="path616"
           d="m 256.571,98.309 c 2.243,0 4.061,1.818 4.061,4.061 0,2.243 -1.818,4.061 -4.061,4.061 -2.243,0 -4.061,-1.818 -4.061,-4.061 0,-2.243 1.818,-4.061 4.061,-4.061 z"
           inkscape:connector-curvature="0"
           style="fill:#fefefe" />
        <path
           id="path618"
           d="m 256.571,98.309 c 2.243,0 4.061,1.818 4.061,4.061 0,2.243 -1.818,4.061 -4.061,4.061 -2.243,0 -4.061,-1.818 -4.061,-4.061 0,-2.243 1.818,-4.061 4.061,-4.061 z"
           inkscape:connector-curvature="0"
           style="fill-opacity:0;stroke:#373535;stroke-width:0.56699997" />
      </g>
    </g>
  </g>
</svg>
